<svg xmlns="http://www.w3.org/2000/svg" xmlns:xlink="http://www.w3.org/1999/xlink" contentStyleType="text/css" height="828px" preserveAspectRatio="none" style="width:1764px;height:828px;background:#FFFFFF;" version="1.1" viewBox="0 0 1764 828" width="1764px" zoomAndPan="magnify"><defs/><g><!--class HANGAR--><g id="elem_HANGAR"><rect codeLine="5" fill="#F1F1F1" height="113.1875" id="HANGAR" rx="2.5" ry="2.5" style="stroke:#181818;stroke-width:0.5;" width="140" x="1036.5" y="7"/><ellipse cx="1073.55" cy="23" fill="#ADD1B2" rx="11" ry="11" style="stroke:#181818;stroke-width:1.0;"/><path d="M1077.6594,29 L1069.9406,29 L1069.9406,16.6094 L1077.6594,16.6094 L1077.6594,18.7656 L1072.3938,18.7656 L1072.3938,21.4375 L1077.1594,21.4375 L1077.1594,23.5938 L1072.3938,23.5938 L1072.3938,26.8438 L1077.6594,26.8438 L1077.6594,29 Z " fill="#000000"/><text fill="#000000" font-family="sans-serif" font-size="14" lengthAdjust="spacing" textLength="59" x="1092.45" y="27.8467">HANGAR</text><line style="stroke:#181818;stroke-width:0.5;" x1="1037.5" x2="1175.5" y1="39" y2="39"/><ellipse cx="1047.5" cy="52.6484" fill="#000000" rx="3" ry="3" style="stroke:#000000;stroke-width:1.0;"/><text fill="#000000" font-family="sans-serif" font-size="14" lengthAdjust="spacing" textLength="99" x="1056.5" y="55.9951">id : UUID &#171;PK&#187;</text><line style="stroke:#181818;stroke-width:1.0;" x1="1037.5" x2="1175.5" y1="63.2969" y2="63.2969"/><text fill="#000000" font-family="sans-serif" font-size="14" lengthAdjust="spacing" textLength="94" x="1042.5" y="80.292">nazev : String</text><text fill="#000000" font-family="sans-serif" font-size="14" lengthAdjust="spacing" textLength="98" x="1042.5" y="96.5889">lokace : String</text><text fill="#000000" font-family="sans-serif" font-size="14" lengthAdjust="spacing" textLength="128" x="1042.5" y="112.8857">limit_koroze : Float</text></g><!--class METEO--><g id="elem_METEO"><rect codeLine="13" fill="#F1F1F1" height="178.375" id="METEO" rx="2.5" ry="2.5" style="stroke:#181818;stroke-width:0.5;" width="195" x="697" y="170.19"/><ellipse cx="742.75" cy="186.19" fill="#ADD1B2" rx="11" ry="11" style="stroke:#181818;stroke-width:1.0;"/><path d="M746.8594,192.19 L739.1406,192.19 L739.1406,179.7994 L746.8594,179.7994 L746.8594,181.9556 L741.5938,181.9556 L741.5938,184.6275 L746.3594,184.6275 L746.3594,186.7838 L741.5938,186.7838 L741.5938,190.0338 L746.8594,190.0338 L746.8594,192.19 Z " fill="#000000"/><text fill="#000000" font-family="sans-serif" font-size="14" lengthAdjust="spacing" textLength="95" x="763.25" y="191.0367">METEO_DATA</text><line style="stroke:#181818;stroke-width:0.5;" x1="698" x2="891" y1="202.19" y2="202.19"/><ellipse cx="708" cy="215.8384" fill="#000000" rx="3" ry="3" style="stroke:#000000;stroke-width:1.0;"/><text fill="#000000" font-family="sans-serif" font-size="14" lengthAdjust="spacing" textLength="99" x="717" y="219.1851">id : UUID &#171;PK&#187;</text><line style="stroke:#181818;stroke-width:1.0;" x1="698" x2="891" y1="226.4869" y2="226.4869"/><ellipse cx="708" cy="240.1353" fill="#000000" rx="3" ry="3" style="stroke:#000000;stroke-width:1.0;"/><text fill="#000000" font-family="sans-serif" font-size="14" lengthAdjust="spacing" textLength="153" x="717" y="243.482">hangar_id : UUID &#171;FK&#187;</text><text fill="#000000" font-family="sans-serif" font-size="14" lengthAdjust="spacing" textLength="94" x="717" y="259.7789">teplota : Float</text><text fill="#000000" font-family="sans-serif" font-size="14" lengthAdjust="spacing" textLength="95" x="717" y="276.0757">vlhkost : Float</text><text fill="#000000" font-family="sans-serif" font-size="14" lengthAdjust="spacing" textLength="70" x="717" y="292.3726">tlak : Float</text><text fill="#000000" font-family="sans-serif" font-size="14" lengthAdjust="spacing" textLength="118" x="717" y="308.6695">rosny_bod : Float</text><text fill="#000000" font-family="sans-serif" font-size="14" lengthAdjust="spacing" textLength="169" x="717" y="324.9664">cas_mereni : Timestamp</text><text fill="#000000" font-family="sans-serif" font-size="14" lengthAdjust="spacing" textLength="94" x="717" y="341.2632">stav : StavDat</text></g><!--class PREDIKCE--><g id="elem_PREDIKCE"><rect codeLine="25" fill="#F1F1F1" height="178.375" id="PREDIKCE" rx="2.5" ry="2.5" style="stroke:#181818;stroke-width:0.5;" width="213" x="761" y="398.56"/><ellipse cx="795.8" cy="414.56" fill="#ADD1B2" rx="11" ry="11" style="stroke:#181818;stroke-width:1.0;"/><path d="M799.9094,420.56 L792.1906,420.56 L792.1906,408.1694 L799.9094,408.1694 L799.9094,410.3256 L794.6438,410.3256 L794.6438,412.9975 L799.4094,412.9975 L799.4094,415.1538 L794.6438,415.1538 L794.6438,418.4038 L799.9094,418.4038 L799.9094,420.56 Z " fill="#000000"/><text fill="#000000" font-family="sans-serif" font-size="14" lengthAdjust="spacing" textLength="137" x="814.2" y="419.4067">PREDIKCE_KOROZE</text><line style="stroke:#181818;stroke-width:0.5;" x1="762" x2="973" y1="430.56" y2="430.56"/><ellipse cx="772" cy="444.2084" fill="#000000" rx="3" ry="3" style="stroke:#000000;stroke-width:1.0;"/><text fill="#000000" font-family="sans-serif" font-size="14" lengthAdjust="spacing" textLength="99" x="781" y="447.5551">id : UUID &#171;PK&#187;</text><line style="stroke:#181818;stroke-width:1.0;" x1="762" x2="973" y1="454.8569" y2="454.8569"/><ellipse cx="772" cy="468.5053" fill="#000000" rx="3" ry="3" style="stroke:#000000;stroke-width:1.0;"/><text fill="#000000" font-family="sans-serif" font-size="14" lengthAdjust="spacing" textLength="153" x="781" y="471.852">hangar_id : UUID &#171;FK&#187;</text><ellipse cx="772" cy="484.8022" fill="#000000" rx="3" ry="3" style="stroke:#000000;stroke-width:1.0;"/><text fill="#000000" font-family="sans-serif" font-size="14" lengthAdjust="spacing" textLength="187" x="781" y="488.1489">meteo_data_id : UUID &#171;FK&#187;</text><text fill="#000000" font-family="sans-serif" font-size="14" lengthAdjust="spacing" textLength="138" x="781" y="504.4457">index_koroze : Float</text><text fill="#000000" font-family="sans-serif" font-size="14" lengthAdjust="spacing" textLength="154" x="781" y="520.7426">predik_hodnota : Float</text><text fill="#000000" font-family="sans-serif" font-size="14" lengthAdjust="spacing" textLength="178" x="781" y="537.0395">spolehlivost : Spolehlivost</text><text fill="#000000" font-family="sans-serif" font-size="14" lengthAdjust="spacing" textLength="181" x="781" y="553.3364">cas_predikce : Timestamp</text><text fill="#000000" font-family="sans-serif" font-size="14" lengthAdjust="spacing" textLength="126" x="781" y="569.6332">log_vstupy : String</text></g><!--class UPOZORNENI--><g id="elem_UPOZORNENI"><rect codeLine="37" fill="#F1F1F1" height="194.6719" id="UPOZORNENI" rx="2.5" ry="2.5" style="stroke:#181818;stroke-width:0.5;" width="227" x="837" y="626.94"/><ellipse cx="899.75" cy="642.94" fill="#ADD1B2" rx="11" ry="11" style="stroke:#181818;stroke-width:1.0;"/><path d="M903.8594,648.94 L896.1406,648.94 L896.1406,636.5494 L903.8594,636.5494 L903.8594,638.7056 L898.5938,638.7056 L898.5938,641.3775 L903.3594,641.3775 L903.3594,643.5338 L898.5938,643.5338 L898.5938,646.7838 L903.8594,646.7838 L903.8594,648.94 Z " fill="#000000"/><text fill="#000000" font-family="sans-serif" font-size="14" lengthAdjust="spacing" textLength="93" x="920.25" y="647.7867">UPOZORNENI</text><line style="stroke:#181818;stroke-width:0.5;" x1="838" x2="1063" y1="658.94" y2="658.94"/><ellipse cx="848" cy="672.5884" fill="#000000" rx="3" ry="3" style="stroke:#000000;stroke-width:1.0;"/><text fill="#000000" font-family="sans-serif" font-size="14" lengthAdjust="spacing" textLength="99" x="857" y="675.9351">id : UUID &#171;PK&#187;</text><line style="stroke:#181818;stroke-width:1.0;" x1="838" x2="1063" y1="683.2369" y2="683.2369"/><ellipse cx="848" cy="696.8853" fill="#000000" rx="3" ry="3" style="stroke:#000000;stroke-width:1.0;"/><text fill="#000000" font-family="sans-serif" font-size="14" lengthAdjust="spacing" textLength="165" x="857" y="700.232">predikce_id : UUID &#171;FK&#187;</text><ellipse cx="848" cy="713.1822" fill="#000000" rx="3" ry="3" style="stroke:#000000;stroke-width:1.0;"/><text fill="#000000" font-family="sans-serif" font-size="14" lengthAdjust="spacing" textLength="153" x="857" y="716.5289">hangar_id : UUID &#171;FK&#187;</text><text fill="#000000" font-family="sans-serif" font-size="14" lengthAdjust="spacing" textLength="190" x="857" y="732.8257">uroven : UrovenUpozorneni</text><text fill="#000000" font-family="sans-serif" font-size="14" lengthAdjust="spacing" textLength="157" x="857" y="749.1226">hodnota_indexu : Float</text><text fill="#000000" font-family="sans-serif" font-size="14" lengthAdjust="spacing" textLength="149" x="857" y="765.4195">kanal : KanalDoruceni</text><text fill="#000000" font-family="sans-serif" font-size="14" lengthAdjust="spacing" textLength="201" x="857" y="781.7164">stav_doruceni : StavDoruceni</text><text fill="#000000" font-family="sans-serif" font-size="14" lengthAdjust="spacing" textLength="179" x="857" y="798.0132">cas_odeslani : Timestamp</text><text fill="#000000" font-family="sans-serif" font-size="14" lengthAdjust="spacing" textLength="177" x="857" y="814.3101">doporucena_akce : String</text></g><!--class UZIVATEL--><g id="elem_UZIVATEL"><rect codeLine="50" fill="#F1F1F1" height="113.1875" id="UZIVATEL" rx="2.5" ry="2.5" style="stroke:#181818;stroke-width:0.5;" width="125" x="1479" y="7"/><ellipse cx="1506.15" cy="23" fill="#ADD1B2" rx="11" ry="11" style="stroke:#181818;stroke-width:1.0;"/><path d="M1510.2594,29 L1502.5406,29 L1502.5406,16.6094 L1510.2594,16.6094 L1510.2594,18.7656 L1504.9938,18.7656 L1504.9938,21.4375 L1509.7594,21.4375 L1509.7594,23.5938 L1504.9938,23.5938 L1504.9938,26.8438 L1510.2594,26.8438 L1510.2594,29 Z " fill="#000000"/><text fill="#000000" font-family="sans-serif" font-size="14" lengthAdjust="spacing" textLength="66" x="1522.85" y="27.8467">UZIVATEL</text><line style="stroke:#181818;stroke-width:0.5;" x1="1480" x2="1603" y1="39" y2="39"/><ellipse cx="1490" cy="52.6484" fill="#000000" rx="3" ry="3" style="stroke:#000000;stroke-width:1.0;"/><text fill="#000000" font-family="sans-serif" font-size="14" lengthAdjust="spacing" textLength="99" x="1499" y="55.9951">id : UUID &#171;PK&#187;</text><line style="stroke:#181818;stroke-width:1.0;" x1="1480" x2="1603" y1="63.2969" y2="63.2969"/><text fill="#000000" font-family="sans-serif" font-size="14" lengthAdjust="spacing" textLength="96" x="1485" y="80.292">jmeno : String</text><text fill="#000000" font-family="sans-serif" font-size="14" lengthAdjust="spacing" textLength="89" x="1485" y="96.5889">email : String</text><text fill="#000000" font-family="sans-serif" font-size="14" lengthAdjust="spacing" textLength="101" x="1485" y="112.8857">telefon : String</text></g><!--class KONFIG--><g id="elem_KONFIG"><rect codeLine="58" fill="#F1F1F1" height="178.375" id="KONFIG" rx="2.5" ry="2.5" style="stroke:#181818;stroke-width:0.5;" width="232" x="1301.5" y="170.19"/><ellipse cx="1316.5" cy="186.19" fill="#ADD1B2" rx="11" ry="11" style="stroke:#181818;stroke-width:1.0;"/><path d="M1320.6094,192.19 L1312.8906,192.19 L1312.8906,179.7994 L1320.6094,179.7994 L1320.6094,181.9556 L1315.3438,181.9556 L1315.3438,184.6275 L1320.1094,184.6275 L1320.1094,186.7838 L1315.3438,186.7838 L1315.3438,190.0338 L1320.6094,190.0338 L1320.6094,192.19 Z " fill="#000000"/><text fill="#000000" font-family="sans-serif" font-size="14" lengthAdjust="spacing" textLength="200" x="1330.5" y="191.0367">KONFIGURACE_UPOZORNENI</text><line style="stroke:#181818;stroke-width:0.5;" x1="1302.5" x2="1532.5" y1="202.19" y2="202.19"/><ellipse cx="1312.5" cy="215.8384" fill="#000000" rx="3" ry="3" style="stroke:#000000;stroke-width:1.0;"/><text fill="#000000" font-family="sans-serif" font-size="14" lengthAdjust="spacing" textLength="99" x="1321.5" y="219.1851">id : UUID &#171;PK&#187;</text><line style="stroke:#181818;stroke-width:1.0;" x1="1302.5" x2="1532.5" y1="226.4869" y2="226.4869"/><ellipse cx="1312.5" cy="240.1353" fill="#000000" rx="3" ry="3" style="stroke:#000000;stroke-width:1.0;"/><text fill="#000000" font-family="sans-serif" font-size="14" lengthAdjust="spacing" textLength="153" x="1321.5" y="243.482">hangar_id : UUID &#171;FK&#187;</text><ellipse cx="1312.5" cy="256.4322" fill="#000000" rx="3" ry="3" style="stroke:#000000;stroke-width:1.0;"/><text fill="#000000" font-family="sans-serif" font-size="14" lengthAdjust="spacing" textLength="157" x="1321.5" y="259.7789">uzivatel_id : UUID &#171;FK&#187;</text><text fill="#000000" font-family="sans-serif" font-size="14" lengthAdjust="spacing" textLength="109" x="1321.5" y="276.0757">prah_info : Float</text><text fill="#000000" font-family="sans-serif" font-size="14" lengthAdjust="spacing" textLength="140" x="1321.5" y="292.3726">prah_varovani : Float</text><text fill="#000000" font-family="sans-serif" font-size="14" lengthAdjust="spacing" textLength="132" x="1321.5" y="308.6695">prah_kriticka : Float</text><text fill="#000000" font-family="sans-serif" font-size="14" lengthAdjust="spacing" textLength="156" x="1321.5" y="324.9664">kanaly : KanalDoruceni</text><text fill="#000000" font-family="sans-serif" font-size="14" lengthAdjust="spacing" textLength="138" x="1321.5" y="341.2632">tiche_okno_min : Int</text></g><!--class UZ_HAN--><g id="elem_UZ_HAN"><rect codeLine="70" fill="#F1F1F1" height="96.8906" id="UZ_HAN" rx="2.5" ry="2.5" style="stroke:#181818;stroke-width:0.5;" width="183" x="1574" y="210.93"/><ellipse cx="1597.55" cy="226.93" fill="#ADD1B2" rx="11" ry="11" style="stroke:#181818;stroke-width:1.0;"/><path d="M1601.6594,232.93 L1593.9406,232.93 L1593.9406,220.5394 L1601.6594,220.5394 L1601.6594,222.6956 L1596.3938,222.6956 L1596.3938,225.3675 L1601.1594,225.3675 L1601.1594,227.5238 L1596.3938,227.5238 L1596.3938,230.7738 L1601.6594,230.7738 L1601.6594,232.93 Z " fill="#000000"/><text fill="#000000" font-family="sans-serif" font-size="14" lengthAdjust="spacing" textLength="132" x="1613.45" y="231.7767">UZIVATEL_HANGAR</text><line style="stroke:#181818;stroke-width:0.5;" x1="1575" x2="1756" y1="242.93" y2="242.93"/><ellipse cx="1585" cy="256.5784" fill="#000000" rx="3" ry="3" style="stroke:#000000;stroke-width:1.0;"/><text fill="#000000" font-family="sans-serif" font-size="14" lengthAdjust="spacing" textLength="157" x="1594" y="259.9251">uzivatel_id : UUID &#171;FK&#187;</text><ellipse cx="1585" cy="272.8753" fill="#000000" rx="3" ry="3" style="stroke:#000000;stroke-width:1.0;"/><text fill="#000000" font-family="sans-serif" font-size="14" lengthAdjust="spacing" textLength="153" x="1594" y="276.222">hangar_id : UUID &#171;FK&#187;</text><line style="stroke:#181818;stroke-width:1.0;" x1="1575" x2="1756" y1="283.5238" y2="283.5238"/><text fill="#000000" font-family="sans-serif" font-size="14" lengthAdjust="spacing" textLength="137" x="1580" y="300.5189">opravneni : TypRole</text></g><!--class LOG--><g id="elem_LOG"><rect codeLine="77" fill="#F1F1F1" height="145.7813" id="LOG" rx="2.5" ry="2.5" style="stroke:#181818;stroke-width:0.5;" width="165" x="1096" y="186.48"/><ellipse cx="1127.2" cy="202.48" fill="#ADD1B2" rx="11" ry="11" style="stroke:#181818;stroke-width:1.0;"/><path d="M1131.3094,208.48 L1123.5906,208.48 L1123.5906,196.0894 L1131.3094,196.0894 L1131.3094,198.2456 L1126.0438,198.2456 L1126.0438,200.9175 L1130.8094,200.9175 L1130.8094,203.0738 L1126.0438,203.0738 L1126.0438,206.3238 L1131.3094,206.3238 L1131.3094,208.48 Z " fill="#000000"/><text fill="#000000" font-family="sans-serif" font-size="14" lengthAdjust="spacing" textLength="97" x="1144.8" y="207.3267">LOG_OPERACI</text><line style="stroke:#181818;stroke-width:0.5;" x1="1097" x2="1260" y1="218.48" y2="218.48"/><ellipse cx="1107" cy="232.1284" fill="#000000" rx="3" ry="3" style="stroke:#000000;stroke-width:1.0;"/><text fill="#000000" font-family="sans-serif" font-size="14" lengthAdjust="spacing" textLength="99" x="1116" y="235.4751">id : UUID &#171;PK&#187;</text><line style="stroke:#181818;stroke-width:1.0;" x1="1097" x2="1260" y1="242.7769" y2="242.7769"/><text fill="#000000" font-family="sans-serif" font-size="14" lengthAdjust="spacing" textLength="90" x="1102" y="259.772">uc_id : UC_ID</text><text fill="#000000" font-family="sans-serif" font-size="14" lengthAdjust="spacing" textLength="80" x="1102" y="276.0689">akce : Akce</text><text fill="#000000" font-family="sans-serif" font-size="14" lengthAdjust="spacing" textLength="135" x="1102" y="292.3657">vysledek : Vysledek</text><text fill="#000000" font-family="sans-serif" font-size="14" lengthAdjust="spacing" textLength="153" x="1102" y="308.6626">hangar_id : UUID &#171;FK&#187;</text><text fill="#000000" font-family="sans-serif" font-size="14" lengthAdjust="spacing" textLength="114" x="1102" y="324.9595">cas : Timestamp</text></g><!--class StavDat--><g id="elem_StavDat"><rect codeLine="87" fill="#F1F1F1" height="80.5938" id="StavDat" rx="2.5" ry="2.5" style="stroke:#181818;stroke-width:0.5;" width="97" x="53" y="23.3"/><ellipse cx="73.4" cy="39.3" fill="#EB937F" rx="11" ry="11" style="stroke:#181818;stroke-width:1.0;"/><path d="M77.5094,45.3 L69.7906,45.3 L69.7906,32.9094 L77.5094,32.9094 L77.5094,35.0656 L72.2438,35.0656 L72.2438,37.7375 L77.0094,37.7375 L77.0094,39.8938 L72.2438,39.8938 L72.2438,43.1438 L77.5094,43.1438 L77.5094,45.3 Z " fill="#000000"/><text fill="#000000" font-family="sans-serif" font-size="14" lengthAdjust="spacing" textLength="53" x="88.6" y="44.1467">StavDat</text><line style="stroke:#181818;stroke-width:0.5;" x1="54" x2="149" y1="55.3" y2="55.3"/><text fill="#000000" font-family="sans-serif" font-size="14" lengthAdjust="spacing" textLength="52" x="59" y="72.2951">VALIDNI</text><text fill="#000000" font-family="sans-serif" font-size="14" lengthAdjust="spacing" textLength="85" x="59" y="88.592">PODEZRELA</text><line style="stroke:#181818;stroke-width:0.5;" x1="54" x2="149" y1="95.8938" y2="95.8938"/></g><!--class Spolehlivost--><g id="elem_Spolehlivost"><rect codeLine="92" fill="#F1F1F1" height="80.5938" id="Spolehlivost" rx="2.5" ry="2.5" style="stroke:#181818;stroke-width:0.5;" width="115" x="190" y="23.3"/><ellipse cx="205" cy="39.3" fill="#EB937F" rx="11" ry="11" style="stroke:#181818;stroke-width:1.0;"/><path d="M209.1094,45.3 L201.3906,45.3 L201.3906,32.9094 L209.1094,32.9094 L209.1094,35.0656 L203.8438,35.0656 L203.8438,37.7375 L208.6094,37.7375 L208.6094,39.8938 L203.8438,39.8938 L203.8438,43.1438 L209.1094,43.1438 L209.1094,45.3 Z " fill="#000000"/><text fill="#000000" font-family="sans-serif" font-size="14" lengthAdjust="spacing" textLength="83" x="219" y="44.1467">Spolehlivost</text><line style="stroke:#181818;stroke-width:0.5;" x1="191" x2="304" y1="55.3" y2="55.3"/><text fill="#000000" font-family="sans-serif" font-size="14" lengthAdjust="spacing" textLength="56" x="196" y="72.2951">VYSOKA</text><text fill="#000000" font-family="sans-serif" font-size="14" lengthAdjust="spacing" textLength="41" x="196" y="88.592">NIZKA</text><line style="stroke:#181818;stroke-width:0.5;" x1="191" x2="304" y1="95.8938" y2="95.8938"/></g><!--class UrovenUpozorneni--><g id="elem_UrovenUpozorneni"><rect codeLine="97" fill="#F1F1F1" height="96.8906" id="UrovenUpozorneni" rx="2.5" ry="2.5" style="stroke:#181818;stroke-width:0.5;" width="161" x="345" y="15.15"/><ellipse cx="360" cy="31.15" fill="#EB937F" rx="11" ry="11" style="stroke:#181818;stroke-width:1.0;"/><path d="M364.1094,37.15 L356.3906,37.15 L356.3906,24.7594 L364.1094,24.7594 L364.1094,26.9156 L358.8438,26.9156 L358.8438,29.5875 L363.6094,29.5875 L363.6094,31.7437 L358.8438,31.7437 L358.8438,34.9937 L364.1094,34.9937 L364.1094,37.15 Z " fill="#000000"/><text fill="#000000" font-family="sans-serif" font-size="14" lengthAdjust="spacing" textLength="129" x="374" y="35.9967">UrovenUpozorneni</text><line style="stroke:#181818;stroke-width:0.5;" x1="346" x2="505" y1="47.15" y2="47.15"/><text fill="#000000" font-family="sans-serif" font-size="14" lengthAdjust="spacing" textLength="86" x="351" y="64.1451">INFORMACNI</text><text fill="#000000" font-family="sans-serif" font-size="14" lengthAdjust="spacing" textLength="70" x="351" y="80.442">VAROVANI</text><text fill="#000000" font-family="sans-serif" font-size="14" lengthAdjust="spacing" textLength="62" x="351" y="96.7389">KRITICKE</text><line style="stroke:#181818;stroke-width:0.5;" x1="346" x2="505" y1="104.0406" y2="104.0406"/></g><!--class KanalDoruceni--><g id="elem_KanalDoruceni"><rect codeLine="103" fill="#F1F1F1" height="96.8906" id="KanalDoruceni" rx="2.5" ry="2.5" style="stroke:#181818;stroke-width:0.5;" width="132" x="545.5" y="15.15"/><ellipse cx="560.5" cy="31.15" fill="#EB937F" rx="11" ry="11" style="stroke:#181818;stroke-width:1.0;"/><path d="M564.6094,37.15 L556.8906,37.15 L556.8906,24.7594 L564.6094,24.7594 L564.6094,26.9156 L559.3438,26.9156 L559.3438,29.5875 L564.1094,29.5875 L564.1094,31.7437 L559.3438,31.7437 L559.3438,34.9937 L564.6094,34.9937 L564.6094,37.15 Z " fill="#000000"/><text fill="#000000" font-family="sans-serif" font-size="14" lengthAdjust="spacing" textLength="100" x="574.5" y="35.9967">KanalDoruceni</text><line style="stroke:#181818;stroke-width:0.5;" x1="546.5" x2="676.5" y1="47.15" y2="47.15"/><text fill="#000000" font-family="sans-serif" font-size="14" lengthAdjust="spacing" textLength="47" x="551.5" y="64.1451">IN_APP</text><text fill="#000000" font-family="sans-serif" font-size="14" lengthAdjust="spacing" textLength="40" x="551.5" y="80.442">EMAIL</text><text fill="#000000" font-family="sans-serif" font-size="14" lengthAdjust="spacing" textLength="30" x="551.5" y="96.7389">SMS</text><line style="stroke:#181818;stroke-width:0.5;" x1="546.5" x2="676.5" y1="104.0406" y2="104.0406"/></g><!--class TypModelu--><g id="elem_TypModelu"><rect codeLine="109" fill="#F1F1F1" height="96.8906" id="TypModelu" rx="2.5" ry="2.5" style="stroke:#181818;stroke-width:0.5;" width="108" x="47.5" y="210.93"/><ellipse cx="62.5" cy="226.93" fill="#EB937F" rx="11" ry="11" style="stroke:#181818;stroke-width:1.0;"/><path d="M66.6094,232.93 L58.8906,232.93 L58.8906,220.5394 L66.6094,220.5394 L66.6094,222.6956 L61.3438,222.6956 L61.3438,225.3675 L66.1094,225.3675 L66.1094,227.5238 L61.3438,227.5238 L61.3438,230.7738 L66.6094,230.7738 L66.6094,232.93 Z " fill="#000000"/><text fill="#000000" font-family="sans-serif" font-size="14" lengthAdjust="spacing" textLength="76" x="76.5" y="231.7767">TypModelu</text><line style="stroke:#181818;stroke-width:0.5;" x1="48.5" x2="154.5" y1="242.93" y2="242.93"/><text fill="#000000" font-family="sans-serif" font-size="14" lengthAdjust="spacing" textLength="30" x="53.5" y="259.9251">EMA</text><text fill="#000000" font-family="sans-serif" font-size="14" lengthAdjust="spacing" textLength="19" x="53.5" y="276.222">ML</text><text fill="#000000" font-family="sans-serif" font-size="14" lengthAdjust="spacing" textLength="68" x="53.5" y="292.5189">FYZIKALNI</text><line style="stroke:#181818;stroke-width:0.5;" x1="48.5" x2="154.5" y1="299.8206" y2="299.8206"/></g><!--class TypRole--><g id="elem_TypRole"><rect codeLine="115" fill="#F1F1F1" height="80.5938" id="TypRole" rx="2.5" ry="2.5" style="stroke:#181818;stroke-width:0.5;" width="127" x="196" y="219.08"/><ellipse cx="228.55" cy="235.08" fill="#EB937F" rx="11" ry="11" style="stroke:#181818;stroke-width:1.0;"/><path d="M232.6594,241.08 L224.9406,241.08 L224.9406,228.6894 L232.6594,228.6894 L232.6594,230.8456 L227.3938,230.8456 L227.3938,233.5175 L232.1594,233.5175 L232.1594,235.6738 L227.3938,235.6738 L227.3938,238.9238 L232.6594,238.9238 L232.6594,241.08 Z " fill="#000000"/><text fill="#000000" font-family="sans-serif" font-size="14" lengthAdjust="spacing" textLength="56" x="246.45" y="239.9267">TypRole</text><line style="stroke:#181818;stroke-width:0.5;" x1="197" x2="322" y1="251.08" y2="251.08"/><text fill="#000000" font-family="sans-serif" font-size="14" lengthAdjust="spacing" textLength="66" x="202" y="268.0751">UZIVATEL</text><text fill="#000000" font-family="sans-serif" font-size="14" lengthAdjust="spacing" textLength="115" x="202" y="284.372">ADMINISTRATOR</text><line style="stroke:#181818;stroke-width:0.5;" x1="197" x2="322" y1="291.6738" y2="291.6738"/></g><!--class StavDoruceni--><g id="elem_StavDoruceni"><rect codeLine="120" fill="#F1F1F1" height="96.8906" id="StavDoruceni" rx="2.5" ry="2.5" style="stroke:#181818;stroke-width:0.5;" width="124" x="362.5" y="210.93"/><ellipse cx="377.5" cy="226.93" fill="#EB937F" rx="11" ry="11" style="stroke:#181818;stroke-width:1.0;"/><path d="M381.6094,232.93 L373.8906,232.93 L373.8906,220.5394 L381.6094,220.5394 L381.6094,222.6956 L376.3438,222.6956 L376.3438,225.3675 L381.1094,225.3675 L381.1094,227.5238 L376.3438,227.5238 L376.3438,230.7738 L381.6094,230.7738 L381.6094,232.93 Z " fill="#000000"/><text fill="#000000" font-family="sans-serif" font-size="14" lengthAdjust="spacing" textLength="92" x="391.5" y="231.7767">StavDoruceni</text><line style="stroke:#181818;stroke-width:0.5;" x1="363.5" x2="485.5" y1="242.93" y2="242.93"/><text fill="#000000" font-family="sans-serif" font-size="14" lengthAdjust="spacing" textLength="82" x="368.5" y="259.9251">DORUCENO</text><text fill="#000000" font-family="sans-serif" font-size="14" lengthAdjust="spacing" textLength="101" x="368.5" y="276.222">NEDORUCENO</text><text fill="#000000" font-family="sans-serif" font-size="14" lengthAdjust="spacing" textLength="85" x="368.5" y="292.5189">POTLACENO</text><line style="stroke:#181818;stroke-width:0.5;" x1="363.5" x2="485.5" y1="299.8206" y2="299.8206"/></g><!--class UC_ID--><g id="elem_UC_ID"><rect codeLine="126" fill="#F1F1F1" height="129.4844" id="UC_ID" rx="2.5" ry="2.5" style="stroke:#181818;stroke-width:0.5;" width="130" x="526.5" y="194.63"/><ellipse cx="567.15" cy="210.63" fill="#EB937F" rx="11" ry="11" style="stroke:#181818;stroke-width:1.0;"/><path d="M571.2594,216.63 L563.5406,216.63 L563.5406,204.2394 L571.2594,204.2394 L571.2594,206.3956 L565.9938,206.3956 L565.9938,209.0675 L570.7594,209.0675 L570.7594,211.2238 L565.9938,211.2238 L565.9938,214.4738 L571.2594,214.4738 L571.2594,216.63 Z " fill="#000000"/><text fill="#000000" font-family="sans-serif" font-size="14" lengthAdjust="spacing" textLength="41" x="586.85" y="215.4767">UC_ID</text><line style="stroke:#181818;stroke-width:0.5;" x1="527.5" x2="655.5" y1="226.63" y2="226.63"/><text fill="#000000" font-family="sans-serif" font-size="14" lengthAdjust="spacing" textLength="95" x="532.5" y="243.6251">METEO_DATA</text><text fill="#000000" font-family="sans-serif" font-size="14" lengthAdjust="spacing" textLength="70" x="532.5" y="259.922">PREDIKCE</text><text fill="#000000" font-family="sans-serif" font-size="14" lengthAdjust="spacing" textLength="105" x="532.5" y="276.2189">KOROZE_DATA</text><text fill="#000000" font-family="sans-serif" font-size="14" lengthAdjust="spacing" textLength="93" x="532.5" y="292.5157">UPOZORNENI</text><text fill="#000000" font-family="sans-serif" font-size="14" lengthAdjust="spacing" textLength="118" x="532.5" y="308.8126">ZOBRAZENI_DAT</text><line style="stroke:#181818;stroke-width:0.5;" x1="527.5" x2="655.5" y1="316.1144" y2="316.1144"/></g><!--class Akce--><g id="elem_Akce"><rect codeLine="134" fill="#F1F1F1" height="162.0781" id="Akce" rx="2.5" ry="2.5" style="stroke:#181818;stroke-width:0.5;" width="189" x="7" y="406.71"/><ellipse cx="80.25" cy="422.71" fill="#EB937F" rx="11" ry="11" style="stroke:#181818;stroke-width:1.0;"/><path d="M84.3594,428.71 L76.6406,428.71 L76.6406,416.3194 L84.3594,416.3194 L84.3594,418.4756 L79.0938,418.4756 L79.0938,421.1475 L83.8594,421.1475 L83.8594,423.3038 L79.0938,423.3038 L79.0938,426.5538 L84.3594,426.5538 L84.3594,428.71 Z " fill="#000000"/><text fill="#000000" font-family="sans-serif" font-size="14" lengthAdjust="spacing" textLength="34" x="100.75" y="427.5567">Akce</text><line style="stroke:#181818;stroke-width:0.5;" x1="8" x2="195" y1="438.71" y2="438.71"/><text fill="#000000" font-family="sans-serif" font-size="14" lengthAdjust="spacing" textLength="146" x="13" y="455.7051">ZISKANI_METEO_DAT</text><text fill="#000000" font-family="sans-serif" font-size="14" lengthAdjust="spacing" textLength="153" x="13" y="472.002">ULOZENI_METEO_DAT</text><text fill="#000000" font-family="sans-serif" font-size="14" lengthAdjust="spacing" textLength="145" x="13" y="488.2989">SPUSTENI_PREDIKCE</text><text fill="#000000" font-family="sans-serif" font-size="14" lengthAdjust="spacing" textLength="125" x="13" y="504.5957">VYPOCET_INDEXU</text><text fill="#000000" font-family="sans-serif" font-size="14" lengthAdjust="spacing" textLength="137" x="13" y="520.8926">ULOZENI_PREDIKCE</text><text fill="#000000" font-family="sans-serif" font-size="14" lengthAdjust="spacing" textLength="169" x="13" y="537.1895">ODESLANI_UPOZORNENI</text><text fill="#000000" font-family="sans-serif" font-size="14" lengthAdjust="spacing" textLength="177" x="13" y="553.4864">POTLACENI_UPOZORNENI</text><line style="stroke:#181818;stroke-width:0.5;" x1="8" x2="195" y1="560.7881" y2="560.7881"/></g><!--class Vysledek--><g id="elem_Vysledek"><rect codeLine="144" fill="#F1F1F1" height="113.1875" id="Vysledek" rx="2.5" ry="2.5" style="stroke:#181818;stroke-width:0.5;" width="94" x="236.5" y="431.16"/><ellipse cx="251.5" cy="447.16" fill="#EB937F" rx="11" ry="11" style="stroke:#181818;stroke-width:1.0;"/><path d="M255.6094,453.16 L247.8906,453.16 L247.8906,440.7694 L255.6094,440.7694 L255.6094,442.9256 L250.3438,442.9256 L250.3438,445.5975 L255.1094,445.5975 L255.1094,447.7538 L250.3438,447.7538 L250.3438,451.0038 L255.6094,451.0038 L255.6094,453.16 Z " fill="#000000"/><text fill="#000000" font-family="sans-serif" font-size="14" lengthAdjust="spacing" textLength="62" x="265.5" y="452.0067">Vysledek</text><line style="stroke:#181818;stroke-width:0.5;" x1="237.5" x2="329.5" y1="463.16" y2="463.16"/><text fill="#000000" font-family="sans-serif" font-size="14" lengthAdjust="spacing" textLength="57" x="242.5" y="480.1551">USPECH</text><text fill="#000000" font-family="sans-serif" font-size="14" lengthAdjust="spacing" textLength="48" x="242.5" y="496.452">CHYBA</text><text fill="#000000" font-family="sans-serif" font-size="14" lengthAdjust="spacing" textLength="70" x="242.5" y="512.7489">VAROVANI</text><text fill="#000000" font-family="sans-serif" font-size="14" lengthAdjust="spacing" textLength="80" x="242.5" y="529.0457">OPAKOVANI</text><line style="stroke:#181818;stroke-width:0.5;" x1="237.5" x2="329.5" y1="536.3475" y2="536.3475"/></g><!--link HANGAR to METEO--><g id="link_HANGAR_METEO"><path codeLine="153" d="M1045.67,128.59 C1045.67,156.26 1045.67,175.61 1045.67,175.61 C1045.67,175.61 980.85,175.61 910.33,175.61 " fill="none" id="HANGAR-METEO" style="stroke:#181818;stroke-width:1.0;"/><line style="stroke:#181818;stroke-width:1.0;" x1="1041.67" x2="1049.67" y1="124.59" y2="124.59"/><line style="stroke:#181818;stroke-width:1.0;" x1="1041.67" x2="1049.67" y1="127.59" y2="127.59"/><line style="stroke:#181818;stroke-width:1.0;" x1="1045.67" x2="1045.67" y1="128.59" y2="120.59"/><line style="stroke:#181818;stroke-width:1.0;" x1="900.33" x2="892.33" y1="175.61" y2="181.61"/><line style="stroke:#181818;stroke-width:1.0;" x1="900.33" x2="892.33" y1="175.61" y2="169.61"/><line style="stroke:#181818;stroke-width:1.0;" x1="900.33" x2="892.33" y1="175.61" y2="175.61"/><ellipse cx="906.33" cy="175.61" fill="none" rx="4" ry="4" style="stroke:#181818;stroke-width:1.0;"/></g><!--link HANGAR to PREDIKCE--><g id="link_HANGAR_PREDIKCE"><path codeLine="154" d="M1028.43,116.61 C980.28,116.61 933,116.61 933,116.61 C933,116.61 933,270.56 933,380.38 " fill="none" id="HANGAR-PREDIKCE" style="stroke:#181818;stroke-width:1.0;"/><line style="stroke:#181818;stroke-width:1.0;" x1="1032.43" x2="1032.43" y1="112.61" y2="120.61"/><line style="stroke:#181818;stroke-width:1.0;" x1="1029.43" x2="1029.43" y1="112.61" y2="120.61"/><line style="stroke:#181818;stroke-width:1.0;" x1="1028.43" x2="1036.43" y1="116.61" y2="116.61"/><line style="stroke:#181818;stroke-width:1.0;" x1="933" x2="939" y1="390.38" y2="398.38"/><line style="stroke:#181818;stroke-width:1.0;" x1="933" x2="927" y1="390.38" y2="398.38"/><line style="stroke:#181818;stroke-width:1.0;" x1="933" x2="933" y1="390.38" y2="398.38"/><ellipse cx="933" cy="384.38" fill="none" rx="4" ry="4" style="stroke:#181818;stroke-width:1.0;"/></g><!--link HANGAR to UPOZORNENI--><g id="link_HANGAR_UPOZORNENI"><path codeLine="155" d="M1054.83,128.5 C1054.83,241.33 1054.83,468.6 1054.83,608.6 " fill="none" id="HANGAR-UPOZORNENI" style="stroke:#181818;stroke-width:1.0;"/><line style="stroke:#181818;stroke-width:1.0;" x1="1050.83" x2="1058.83" y1="124.5" y2="124.5"/><line style="stroke:#181818;stroke-width:1.0;" x1="1050.83" x2="1058.83" y1="127.5" y2="127.5"/><line style="stroke:#181818;stroke-width:1.0;" x1="1054.83" x2="1054.83" y1="128.5" y2="120.5"/><line style="stroke:#181818;stroke-width:1.0;" x1="1054.83" x2="1060.83" y1="618.6" y2="626.6"/><line style="stroke:#181818;stroke-width:1.0;" x1="1054.83" x2="1048.83" y1="618.6" y2="626.6"/><line style="stroke:#181818;stroke-width:1.0;" x1="1054.83" x2="1054.83" y1="618.6" y2="626.6"/><ellipse cx="1054.83" cy="612.6" fill="none" rx="4" ry="4" style="stroke:#181818;stroke-width:1.0;"/></g><!--link HANGAR to KONFIG--><g id="link_HANGAR_KONFIG"><path codeLine="156" d="M1156.37,128.39 C1156.37,158.2 1156.37,180.61 1156.37,180.61 C1156.37,180.61 1213.43,180.61 1283.07,180.61 " fill="none" id="HANGAR-KONFIG" style="stroke:#181818;stroke-width:1.0;"/><line style="stroke:#181818;stroke-width:1.0;" x1="1152.37" x2="1160.37" y1="124.39" y2="124.39"/><line style="stroke:#181818;stroke-width:1.0;" x1="1152.37" x2="1160.37" y1="127.39" y2="127.39"/><line style="stroke:#181818;stroke-width:1.0;" x1="1156.37" x2="1156.37" y1="128.39" y2="120.39"/><line style="stroke:#181818;stroke-width:1.0;" x1="1293.07" x2="1301.07" y1="180.61" y2="174.61"/><line style="stroke:#181818;stroke-width:1.0;" x1="1293.07" x2="1301.07" y1="180.61" y2="186.61"/><line style="stroke:#181818;stroke-width:1.0;" x1="1293.07" x2="1301.07" y1="180.61" y2="180.61"/><ellipse cx="1287.07" cy="180.61" fill="none" rx="4" ry="4" style="stroke:#181818;stroke-width:1.0;"/></g><!--link HANGAR to UZ_HAN--><g id="link_HANGAR_UZ_HAN"><path codeLine="157" d="M1116.12,128.56 C1116.12,142.55 1116.12,145.61 1116.12,145.61 C1116.12,145.61 1584,145.61 1584,145.61 C1584,145.61 1584,161.63 1584,192.47 " fill="none" id="HANGAR-UZ_HAN" style="stroke:#181818;stroke-width:1.0;"/><line style="stroke:#181818;stroke-width:1.0;" x1="1112.12" x2="1120.12" y1="124.56" y2="124.56"/><line style="stroke:#181818;stroke-width:1.0;" x1="1112.12" x2="1120.12" y1="127.56" y2="127.56"/><line style="stroke:#181818;stroke-width:1.0;" x1="1116.12" x2="1116.12" y1="128.56" y2="120.56"/><line style="stroke:#181818;stroke-width:1.0;" x1="1584" x2="1590" y1="202.47" y2="210.47"/><line style="stroke:#181818;stroke-width:1.0;" x1="1584" x2="1578" y1="202.47" y2="210.47"/><line style="stroke:#181818;stroke-width:1.0;" x1="1584" x2="1584" y1="202.47" y2="210.47"/><ellipse cx="1584" cy="196.47" fill="none" rx="4" ry="4" style="stroke:#181818;stroke-width:1.0;"/></g><!--link HANGAR to LOG--><g id="link_HANGAR_LOG"><path codeLine="158" d="M1136.25,128.49 C1136.25,149.03 1136.25,146.52 1136.25,168.27 " fill="none" id="HANGAR-LOG" style="stroke:#181818;stroke-width:1.0;"/><line style="stroke:#181818;stroke-width:1.0;" x1="1132.25" x2="1140.25" y1="124.49" y2="124.49"/><line style="stroke:#181818;stroke-width:1.0;" x1="1132.25" x2="1140.25" y1="127.49" y2="127.49"/><line style="stroke:#181818;stroke-width:1.0;" x1="1136.25" x2="1136.25" y1="128.49" y2="120.49"/><line style="stroke:#181818;stroke-width:1.0;" x1="1136.25" x2="1142.25" y1="178.27" y2="186.27"/><line style="stroke:#181818;stroke-width:1.0;" x1="1136.25" x2="1130.25" y1="178.27" y2="186.27"/><line style="stroke:#181818;stroke-width:1.0;" x1="1136.25" x2="1136.25" y1="178.27" y2="186.27"/><ellipse cx="1136.25" cy="172.27" fill="none" rx="4" ry="4" style="stroke:#181818;stroke-width:1.0;"/></g><!--link METEO to PREDIKCE--><g id="link_METEO_PREDIKCE"><path codeLine="160" d="M826.5,356.98 C826.5,373.23 826.5,364.17 826.5,380.4 " fill="none" id="METEO-PREDIKCE" style="stroke:#181818;stroke-width:1.0;"/><line style="stroke:#181818;stroke-width:1.0;" x1="822.5" x2="830.5" y1="352.98" y2="352.98"/><line style="stroke:#181818;stroke-width:1.0;" x1="822.5" x2="830.5" y1="355.98" y2="355.98"/><line style="stroke:#181818;stroke-width:1.0;" x1="826.5" x2="826.5" y1="356.98" y2="348.98"/><line style="stroke:#181818;stroke-width:1.0;" x1="826.5" x2="832.5" y1="390.4" y2="398.4"/><line style="stroke:#181818;stroke-width:1.0;" x1="826.5" x2="820.5" y1="390.4" y2="398.4"/><line style="stroke:#181818;stroke-width:1.0;" x1="826.5" x2="826.5" y1="390.4" y2="398.4"/><ellipse cx="826.5" cy="384.4" fill="none" rx="4" ry="4" style="stroke:#181818;stroke-width:1.0;"/></g><!--link PREDIKCE to UPOZORNENI--><g id="link_PREDIKCE_UPOZORNENI"><path codeLine="161" d="M905.5,585.17 C905.5,601.39 905.5,592.38 905.5,608.82 " fill="none" id="PREDIKCE-UPOZORNENI" style="stroke:#181818;stroke-width:1.0;"/><line style="stroke:#181818;stroke-width:1.0;" x1="901.5" x2="909.5" y1="581.17" y2="581.17"/><line style="stroke:#181818;stroke-width:1.0;" x1="901.5" x2="909.5" y1="584.17" y2="584.17"/><line style="stroke:#181818;stroke-width:1.0;" x1="905.5" x2="905.5" y1="585.17" y2="577.17"/><line style="stroke:#181818;stroke-width:1.0;" x1="905.5" x2="911.5" y1="618.82" y2="626.82"/><line style="stroke:#181818;stroke-width:1.0;" x1="905.5" x2="899.5" y1="618.82" y2="626.82"/><line style="stroke:#181818;stroke-width:1.0;" x1="905.5" x2="905.5" y1="618.82" y2="626.82"/><ellipse cx="905.5" cy="612.82" fill="none" rx="4" ry="4" style="stroke:#181818;stroke-width:1.0;"/></g><!--link UZIVATEL to KONFIG--><g id="link_UZIVATEL_KONFIG"><path codeLine="163" d="M1506.25,128.49 C1506.25,143.95 1506.25,135.09 1506.25,151.89 " fill="none" id="UZIVATEL-KONFIG" style="stroke:#181818;stroke-width:1.0;"/><line style="stroke:#181818;stroke-width:1.0;" x1="1502.25" x2="1510.25" y1="124.49" y2="124.49"/><line style="stroke:#181818;stroke-width:1.0;" x1="1502.25" x2="1510.25" y1="127.49" y2="127.49"/><line style="stroke:#181818;stroke-width:1.0;" x1="1506.25" x2="1506.25" y1="128.49" y2="120.49"/><line style="stroke:#181818;stroke-width:1.0;" x1="1506.25" x2="1512.25" y1="161.89" y2="169.89"/><line style="stroke:#181818;stroke-width:1.0;" x1="1506.25" x2="1500.25" y1="161.89" y2="169.89"/><line style="stroke:#181818;stroke-width:1.0;" x1="1506.25" x2="1506.25" y1="161.89" y2="169.89"/><ellipse cx="1506.25" cy="155.89" fill="none" rx="4" ry="4" style="stroke:#181818;stroke-width:1.0;"/></g><!--link UZIVATEL to UZ_HAN--><g id="link_UZIVATEL_UZ_HAN"><path codeLine="164" d="M1594,128.49 C1594,157.05 1594,165.3 1594,192.64 " fill="none" id="UZIVATEL-UZ_HAN" style="stroke:#181818;stroke-width:1.0;"/><line style="stroke:#181818;stroke-width:1.0;" x1="1590" x2="1598" y1="124.49" y2="124.49"/><line style="stroke:#181818;stroke-width:1.0;" x1="1590" x2="1598" y1="127.49" y2="127.49"/><line style="stroke:#181818;stroke-width:1.0;" x1="1594" x2="1594" y1="128.49" y2="120.49"/><line style="stroke:#181818;stroke-width:1.0;" x1="1594" x2="1600" y1="202.64" y2="210.64"/><line style="stroke:#181818;stroke-width:1.0;" x1="1594" x2="1588" y1="202.64" y2="210.64"/><line style="stroke:#181818;stroke-width:1.0;" x1="1594" x2="1594" y1="202.64" y2="210.64"/><ellipse cx="1594" cy="196.64" fill="none" rx="4" ry="4" style="stroke:#181818;stroke-width:1.0;"/></g><!--SRC=[fLPHZviu47xdLrXzgRJIIdsulfogIcvWToqIZ814jxnOlk1kV82DW4INRU-_tzWGOcZQVUXBcFbcpFZxPcpIbL8rlEKrggGI_RaHIBVzGNlT552w49req1yV7B3bgZJWnm-U9rGl-pDwzuIZHvoyGxn3Wuc-UGZT8LcWFz5sItpqwLCSVluCuFqz_2Z-AauGIljMgXS0AbtolPWXifOzAtMhNmt-K6dUU_zTIsw2BA3CnncsPQtxHjKxTE3gXRVCJNWO4dhHLBhdKoM4JjMXr5tl87t5IyTjTQVEx6zTEDYUTwmMhL0Im4pMekjvtK00dWDXVlBdHE8ay4cu2bX84ve7biq5-mr2TwWMlT2iu3s_5PUg4FykzKMeQKKXItRGXPhBqJMw4eTAdWPDKiSTUGzBRHTTvfL-OQUkFpRdQtiT-jkOvZI9WeXOvbVtJUwNUhVP_roPOwjFGXdO6jj6l-fMGSiWDl9cLfsZGx_aYbVWX-Rfw_Qu7nQOlh9Yz2yDleQDBkOGLVo7YIXqC-HnnajtzbrnShB3MR0Uf1cTDuJvfnPAkoT9r5nMBj2BIdpLwcR5a4OFv76RO1Z8HMk6q6-DvF5LdZYKlnLjMdu0tR_gsJG2TkBGfq6_6LwsifVxaY-xTBxH9aWy2APBfLaj3NEY-bj2C-Scs-R66_d-QkU_ucn5qR3VanelXNEJmD5nYw_f8wDn09eFGeF_Xih7_LXhnOWF_ZX061xcvZftbIY4kQjsesb6-wTxX26TpQRTsh6-N5PsBpky9dv4m8gf7-H9iCRNFFTgiCdFAGqn6179mslUyhpPN18zq6I3L_RTEvpG7RPcc92ChC9WMZrhwRYKuJW68zXWiePdkacdTD1v0oUlEjfKo83VZKbwUCv9YDTGn4arBR69bq404_iR4f4qIt16axaexYvyccnNGKGDtS1nOfgjiRKd_gPRTitrusKInylUaBQVW4lWUlx0oUcN1ETWc-ZqIjDn-yQSf248nwOtc_LhQXUuM1flqyo0JjNTSqnNGSP8v0T_RPs5JWuqFLsR0hDDNJZEuClUBhCtw9h6mUe9ZDNJynSyRpMDSJZOiDHxZn9HyLvgrHraqtdZ7uhlt-_lzRT1kGKsVIqNkFCjMKJ6gsoPFnpu1MfEe-SD_oz-A3XPDqfwquMzgBh4Xxh_0m00]--></g></svg>