<svg xmlns="http://www.w3.org/2000/svg" xmlns:xlink="http://www.w3.org/1999/xlink" contentStyleType="text/css" height="546px" preserveAspectRatio="none" style="width:591px;height:546px;background:#FFFFFF;" version="1.1" viewBox="0 0 591 546" width="591px" zoomAndPan="magnify"><defs/><g><rect fill="#FFFFFF" height="344.5938" style="stroke:#181818;stroke-width:1.0;" width="10" x="228" y="112.4297"/><rect fill="#FFFFFF" height="87.3984" style="stroke:#181818;stroke-width:1.0;" width="10" x="378" y="141.5625"/><rect fill="#FFFFFF" height="87.3984" style="stroke:#181818;stroke-width:1.0;" width="10" x="378" y="316.3594"/><rect fill="#FFFFFF" height="29.1328" style="stroke:#181818;stroke-width:1.0;" width="10" x="551" y="170.6953"/><rect fill="#FFFFFF" height="29.1328" style="stroke:#181818;stroke-width:1.0;" width="10" x="551" y="345.4922"/><line style="stroke:#181818;stroke-width:0.5;stroke-dasharray:5.0,5.0;" x1="27" x2="27" y1="81.2969" y2="466.0234"/><line style="stroke:#181818;stroke-width:0.5;stroke-dasharray:5.0,5.0;" x1="233" x2="233" y1="81.2969" y2="466.0234"/><line style="stroke:#181818;stroke-width:0.5;stroke-dasharray:5.0,5.0;" x1="382.5" x2="382.5" y1="81.2969" y2="466.0234"/><line style="stroke:#181818;stroke-width:0.5;stroke-dasharray:5.0,5.0;" x1="556" x2="556" y1="81.2969" y2="466.0234"/><text fill="#000000" font-family="sans-serif" font-size="14" lengthAdjust="spacing" textLength="38" x="5" y="77.9951">USER</text><ellipse cx="27" cy="13.5" fill="#E2E2F0" rx="8" ry="8" style="stroke:#181818;stroke-width:0.5;"/><path d="M27,21.5 L27,48.5 M14,29.5 L40,29.5 M27,48.5 L14,63.5 M27,48.5 L40,63.5 " fill="none" style="stroke:#181818;stroke-width:0.5;"/><text fill="#000000" font-family="sans-serif" font-size="14" lengthAdjust="spacing" textLength="38" x="5" y="478.0186">USER</text><ellipse cx="27" cy="489.8203" fill="#E2E2F0" rx="8" ry="8" style="stroke:#181818;stroke-width:0.5;"/><path d="M27,497.8203 L27,524.8203 M14,505.8203 L40,505.8203 M27,524.8203 L14,539.8203 M27,524.8203 L40,539.8203 " fill="none" style="stroke:#181818;stroke-width:0.5;"/><rect fill="#E2E2F0" height="30.2969" rx="2.5" ry="2.5" style="stroke:#181818;stroke-width:0.5;" width="90" x="188" y="50"/><text fill="#000000" font-family="sans-serif" font-size="14" lengthAdjust="spacing" textLength="76" x="195" y="69.9951">Dashboard</text><rect fill="#E2E2F0" height="30.2969" rx="2.5" ry="2.5" style="stroke:#181818;stroke-width:0.5;" width="90" x="188" y="465.0234"/><text fill="#000000" font-family="sans-serif" font-size="14" lengthAdjust="spacing" textLength="76" x="195" y="485.0186">Dashboard</text><rect fill="#E2E2F0" height="30.2969" rx="2.5" ry="2.5" style="stroke:#181818;stroke-width:0.5;" width="119" x="323.5" y="50"/><text fill="#000000" font-family="sans-serif" font-size="14" lengthAdjust="spacing" textLength="105" x="330.5" y="69.9951">Fetch Endpoint</text><rect fill="#E2E2F0" height="30.2969" rx="2.5" ry="2.5" style="stroke:#181818;stroke-width:0.5;" width="119" x="323.5" y="465.0234"/><text fill="#000000" font-family="sans-serif" font-size="14" lengthAdjust="spacing" textLength="105" x="330.5" y="485.0186">Fetch Endpoint</text><text fill="#000000" font-family="sans-serif" font-size="14" lengthAdjust="spacing" textLength="21" x="542.5" y="77.9951">DB</text><path d="M538,29 C538,19 556,19 556,19 C556,19 574,19 574,29 L574,55 C574,65 556,65 556,65 C556,65 538,65 538,55 L538,29 " fill="#E2E2F0" style="stroke:#181818;stroke-width:1.5;"/><path d="M538,29 C538,39 556,39 556,39 C556,39 574,39 574,29 " fill="none" style="stroke:#181818;stroke-width:1.5;"/><text fill="#000000" font-family="sans-serif" font-size="14" lengthAdjust="spacing" textLength="21" x="542.5" y="478.0186">DB</text><path d="M538,491.3203 C538,481.3203 556,481.3203 556,481.3203 C556,481.3203 574,481.3203 574,491.3203 L574,517.3203 C574,527.3203 556,527.3203 556,527.3203 C556,527.3203 538,527.3203 538,517.3203 L538,491.3203 " fill="#E2E2F0" style="stroke:#181818;stroke-width:1.5;"/><path d="M538,491.3203 C538,501.3203 556,501.3203 556,501.3203 C556,501.3203 574,501.3203 574,491.3203 " fill="none" style="stroke:#181818;stroke-width:1.5;"/><rect fill="#FFFFFF" height="344.5938" style="stroke:#181818;stroke-width:1.0;" width="10" x="228" y="112.4297"/><rect fill="#FFFFFF" height="87.3984" style="stroke:#181818;stroke-width:1.0;" width="10" x="378" y="141.5625"/><rect fill="#FFFFFF" height="87.3984" style="stroke:#181818;stroke-width:1.0;" width="10" x="378" y="316.3594"/><rect fill="#FFFFFF" height="29.1328" style="stroke:#181818;stroke-width:1.0;" width="10" x="551" y="170.6953"/><rect fill="#FFFFFF" height="29.1328" style="stroke:#181818;stroke-width:1.0;" width="10" x="551" y="345.4922"/><polygon fill="#181818" points="216,108.4297,226,112.4297,216,116.4297,220,112.4297" style="stroke:#181818;stroke-width:1.0;"/><line style="stroke:#181818;stroke-width:1.0;" x1="27" x2="222" y1="112.4297" y2="112.4297"/><text fill="#000000" font-family="sans-serif" font-size="13" lengthAdjust="spacing" textLength="116" x="34" y="107.3638">Page load request</text><line style="stroke:#181818;stroke-width:1.0;" x1="376" x2="366" y1="141.5625" y2="137.5625"/><line style="stroke:#181818;stroke-width:1.0;" x1="376" x2="366" y1="141.5625" y2="145.5625"/><line style="stroke:#181818;stroke-width:1.0;" x1="238" x2="377" y1="141.5625" y2="141.5625"/><text fill="#000000" font-family="sans-serif" font-size="13" lengthAdjust="spacing" textLength="121" x="245" y="136.4966">Fetch data request</text><polygon fill="#181818" points="539,166.6953,549,170.6953,539,174.6953,543,170.6953" style="stroke:#181818;stroke-width:1.0;"/><line style="stroke:#181818;stroke-width:1.0;" x1="388" x2="545" y1="170.6953" y2="170.6953"/><text fill="#000000" font-family="sans-serif" font-size="13" lengthAdjust="spacing" textLength="144" x="395" y="165.6294">fetchData(limit, offset)</text><polygon fill="#181818" points="399,195.8281,389,199.8281,399,203.8281,395,199.8281" style="stroke:#181818;stroke-width:1.0;"/><line style="stroke:#181818;stroke-width:1.0;stroke-dasharray:2.0,2.0;" x1="393" x2="555" y1="199.8281" y2="199.8281"/><text fill="#000000" font-family="sans-serif" font-size="13" lengthAdjust="spacing" textLength="31" x="405" y="194.7622">Data</text><polygon fill="#181818" points="249,224.9609,239,228.9609,249,232.9609,245,228.9609" style="stroke:#181818;stroke-width:1.0;"/><line style="stroke:#181818;stroke-width:1.0;stroke-dasharray:2.0,2.0;" x1="243" x2="382" y1="228.9609" y2="228.9609"/><text fill="#000000" font-family="sans-serif" font-size="13" lengthAdjust="spacing" textLength="31" x="255" y="223.895">Data</text><polygon fill="#181818" points="38,254.0938,28,258.0938,38,262.0938,34,258.0938" style="stroke:#181818;stroke-width:1.0;"/><line style="stroke:#181818;stroke-width:1.0;stroke-dasharray:2.0,2.0;" x1="32" x2="227" y1="258.0938" y2="258.0938"/><text fill="#000000" font-family="sans-serif" font-size="13" lengthAdjust="spacing" textLength="51" x="44" y="253.0278">Content</text><polygon fill="#181818" points="216,283.2266,226,287.2266,216,291.2266,220,287.2266" style="stroke:#181818;stroke-width:1.0;"/><line style="stroke:#181818;stroke-width:1.0;" x1="27" x2="222" y1="287.2266" y2="287.2266"/><text fill="#000000" font-family="sans-serif" font-size="13" lengthAdjust="spacing" textLength="161" x="34" y="282.1606">Different content request</text><line style="stroke:#181818;stroke-width:1.0;" x1="376" x2="366" y1="316.3594" y2="312.3594"/><line style="stroke:#181818;stroke-width:1.0;" x1="376" x2="366" y1="316.3594" y2="320.3594"/><line style="stroke:#181818;stroke-width:1.0;" x1="238" x2="377" y1="316.3594" y2="316.3594"/><text fill="#000000" font-family="sans-serif" font-size="13" lengthAdjust="spacing" textLength="121" x="245" y="311.2935">Fetch data request</text><polygon fill="#181818" points="539,341.4922,549,345.4922,539,349.4922,543,345.4922" style="stroke:#181818;stroke-width:1.0;"/><line style="stroke:#181818;stroke-width:1.0;" x1="388" x2="545" y1="345.4922" y2="345.4922"/><text fill="#000000" font-family="sans-serif" font-size="13" lengthAdjust="spacing" textLength="144" x="395" y="340.4263">fetchData(limit, offset)</text><polygon fill="#181818" points="399,370.625,389,374.625,399,378.625,395,374.625" style="stroke:#181818;stroke-width:1.0;"/><line style="stroke:#181818;stroke-width:1.0;stroke-dasharray:2.0,2.0;" x1="393" x2="555" y1="374.625" y2="374.625"/><text fill="#000000" font-family="sans-serif" font-size="13" lengthAdjust="spacing" textLength="88" x="405" y="369.5591">Different data</text><polygon fill="#181818" points="249,399.7578,239,403.7578,249,407.7578,245,403.7578" style="stroke:#181818;stroke-width:1.0;"/><line style="stroke:#181818;stroke-width:1.0;stroke-dasharray:2.0,2.0;" x1="243" x2="382" y1="403.7578" y2="403.7578"/><text fill="#000000" font-family="sans-serif" font-size="13" lengthAdjust="spacing" textLength="88" x="255" y="398.6919">Different data</text><polygon fill="#181818" points="38,444.0234,28,448.0234,38,452.0234,34,448.0234" style="stroke:#181818;stroke-width:1.0;"/><line style="stroke:#181818;stroke-width:1.0;stroke-dasharray:2.0,2.0;" x1="32" x2="227" y1="448.0234" y2="448.0234"/><text fill="#000000" font-family="sans-serif" font-size="13" lengthAdjust="spacing" textLength="108" x="44" y="427.8247">Different content</text><text fill="#000000" font-family="sans-serif" font-size="13" lengthAdjust="spacing" textLength="177" x="44" y="442.9575">(without dashboard refresh)</text><!--SRC=[lPB1RiCW38RlF8NLKoijBv133nd9UTgqsoukc0MfWmpSzVMBWnQrZQhTTa42V_xiNm8DnmJlR_shcZ2nDtx2mA0nZuU8oGBc-N9JtGp4PeG-s2dwm1k1XbvPP3nW9j2TKgA4PZytj_22dmJ7Y1OIVPyeiqB3_WUPgbsEGk-BfeLg5zkQBcE6VlPsBJW1TU6sH__b-GcYSvbuToNlbEwWQQfOK6NfkYgoPSlxUXbM5ok4v6dXEGQcm7Vfj7UEKda7K-lBtl-KQvbl_qhua5ndNQVw2Dkpvp6UfFttWoHoYVAukm00]--></g></svg>