<svg xmlns="http://www.w3.org/2000/svg" xmlns:xlink="http://www.w3.org/1999/xlink" contentStyleType="text/css" height="481px" preserveAspectRatio="none" style="width:436px;height:481px;background:#FFFFFF;" version="1.1" viewBox="0 0 436 481" width="436px" zoomAndPan="magnify"><defs/><g><!--cluster SmartHangar--><g id="cluster_SmartHangar"><rect fill="none" height="468" rx="2.5" ry="2.5" style="stroke:#181818;stroke-width:1.0;" width="218.56" x="106" y="7"/><text fill="#000000" font-family="sans-serif" font-size="14" font-weight="bold" lengthAdjust="spacing" textLength="102" x="164.28" y="21.9951">SmartHangar</text></g><g id="elem_UC1"><ellipse cx="215.2808" cy="68" fill="#F1F1F1" rx="93.2808" ry="26.17" style="stroke:#181818;stroke-width:0.5;"/><text fill="#000000" font-family="sans-serif" font-size="14" lengthAdjust="spacing" textLength="115" x="154.7808" y="63.5991">Z&#237;sk&#225;n&#237; a ulo&#382;en&#237;</text><text fill="#000000" font-family="sans-serif" font-size="14" lengthAdjust="spacing" textLength="71" x="176.7808" y="79.896">meteo dat</text></g><g id="elem_UC2"><ellipse cx="215.2836" cy="147.0007" fill="#F1F1F1" rx="77.3536" ry="17.8707" style="stroke:#181818;stroke-width:0.5;"/><text fill="#000000" font-family="sans-serif" font-size="14" lengthAdjust="spacing" textLength="112" x="156.5633" y="150.6754">Predikce koroze</text></g><g id="elem_UC3"><ellipse cx="215.2825" cy="241.9973" fill="#F1F1F1" rx="65.9325" ry="26.0473" style="stroke:#181818;stroke-width:0.5;"/><text fill="#000000" font-family="sans-serif" font-size="14" lengthAdjust="spacing" textLength="77" x="176.7825" y="236.6955">Ulo&#382;en&#237; dat</text><text fill="#000000" font-family="sans-serif" font-size="14" lengthAdjust="spacing" textLength="55" x="187.7825" y="252.9924">o korozi</text></g><g id="elem_UC4"><ellipse cx="215.2838" cy="345.9973" fill="#F1F1F1" rx="68.0538" ry="26.0473" style="stroke:#181818;stroke-width:0.5;"/><text fill="#000000" font-family="sans-serif" font-size="14" lengthAdjust="spacing" textLength="80" x="175.2838" y="340.6955">Upozorn&#283;n&#237;</text><text fill="#000000" font-family="sans-serif" font-size="14" lengthAdjust="spacing" textLength="48" x="191.2838" y="356.9924">na limit</text></g><g id="elem_UC5"><ellipse cx="215.2804" cy="432.9973" fill="#F1F1F1" rx="78.6604" ry="26.0473" style="stroke:#181818;stroke-width:0.5;"/><text fill="#000000" font-family="sans-serif" font-size="14" lengthAdjust="spacing" textLength="70" x="180.2804" y="427.6955">Zobrazen&#237;</text><text fill="#000000" font-family="sans-serif" font-size="14" lengthAdjust="spacing" textLength="95" x="167.7804" y="443.9924">vybran&#253;ch dat</text></g><!--entity User--><g id="elem_User"><ellipse cx="32.5" cy="221.35" fill="#F1F1F1" rx="8" ry="8" style="stroke:#181818;stroke-width:0.5;"/><path d="M32.5,229.35 L32.5,256.35 M19.5,237.35 L45.5,237.35 M32.5,256.35 L19.5,271.35 M32.5,256.35 L45.5,271.35 " fill="none" style="stroke:#181818;stroke-width:0.5;"/><text fill="#000000" font-family="sans-serif" font-size="14" lengthAdjust="spacing" textLength="53" x="6" y="285.8451">U&#382;ivatel</text></g><!--entity Timer--><g id="elem_Timer"><ellipse cx="400.56" cy="78.35" fill="#F1F1F1" rx="8" ry="8" style="stroke:#181818;stroke-width:0.5;"/><path d="M400.56,86.35 L400.56,113.35 M387.56,94.35 L413.56,94.35 M400.56,113.35 L387.56,128.35 M400.56,113.35 L413.56,128.35 " fill="none" style="stroke:#181818;stroke-width:0.5;"/><text fill="#000000" font-family="sans-serif" font-size="14" lengthAdjust="spacing" textLength="58" x="371.56" y="142.8451">&#268;asova&#269;</text></g><!--link User to UC1--><g id="link_User_UC1"><path d="M42.67,212.6 C51.88,181.65 68.97,138.99 98,112 C110.72,100.17 121.3604,93.6364 137.6204,87.2064 " fill="none" id="User-to-UC1" style="stroke:#181818;stroke-width:1.0;"/><polygon fill="#181818" points="143.2,85,133.3597,84.5899,138.5504,86.8387,136.3016,92.0294,143.2,85" style="stroke:#181818;stroke-width:1.0;"/></g><!--link User to UC5--><g id="link_User_UC5"><path d="M42.62,289.46 C51.8,320.44 68.87,363.12 98,390 C112.16,403.06 124.9773,410.2383 143.0173,416.6583 " fill="none" id="User-to-UC5" style="stroke:#181818;stroke-width:1.0;"/><polygon fill="#181818" points="148.67,418.67,141.532,411.884,143.9594,416.9936,138.8498,419.421,148.67,418.67" style="stroke:#181818;stroke-width:1.0;"/></g><!--link UC2 to UC1--><!--link UC3 to UC2--><!--reverse link UC3 to UC2--><g id="link_UC3_UC2"><path d="M215.28,209.54 C215.28,193.51 215.28,179.47 215.28,165.21 " fill="none" id="UC3-backto-UC2" style="stroke:#181818;stroke-width:1.0;"/><polygon fill="#181818" points="215.28,215.54,219.28,206.54,215.28,210.54,211.28,206.54,215.28,215.54" style="stroke:#181818;stroke-width:1.0;"/><text fill="#000000" font-family="sans-serif" font-size="13" lengthAdjust="spacing" textLength="61" x="173.28" y="194.9769">&#171;include&#187;</text></g><!--link UC4 to UC3--><!--reverse link UC4 to UC3--><g id="link_UC4_UC3"><path d="M215.28,313.49 C215.28,297.84 215.28,284.1 215.28,268.46 " fill="none" id="UC4-backto-UC3" style="stroke:#181818;stroke-width:1.0;stroke-dasharray:7.0,7.0;"/><polygon fill="#181818" points="215.28,319.49,219.28,310.49,215.28,314.49,211.28,310.49,215.28,319.49" style="stroke:#181818;stroke-width:1.0;"/><text fill="#000000" font-family="sans-serif" font-size="13" lengthAdjust="spacing" textLength="60" x="173.78" y="298.5669">&#171;extend&#187;</text></g><!--link UC5 to UC4--><!--reverse link UC1 to Timer--><g id="link_UC1_Timer"><path d="M295.902,85.3793 C324.542,91.6293 349.76,97.13 371.46,101.87 " fill="none" id="UC1-backto-Timer" style="stroke:#181818;stroke-width:1.0;"/><polygon fill="#181818" points="290.04,84.1,297.9802,89.9269,294.925,85.166,299.6859,82.1108,290.04,84.1" style="stroke:#181818;stroke-width:1.0;"/></g><!--reverse link UC2 to Timer--><g id="link_UC2_Timer"><path d="M279.3884,133.5704 C311.8384,126.6604 345.16,119.58 371.14,114.05 " fill="none" id="UC2-backto-Timer" style="stroke:#181818;stroke-width:1.0;"/><polygon fill="#181818" points="273.52,134.82,283.1557,136.8578,278.4104,133.7786,281.4895,129.0333,273.52,134.82" style="stroke:#181818;stroke-width:1.0;"/></g><!--SRC=[PL71JW8n4BttAoRSbmHtkHZ2nOj74kIYU1ZR4PhjjgGjA1Z_GB_0an_09yXbuRziku02JPfCtdjzysQgwDc3Ds3bPEf1I4lSIwEPAwMUeSKAPiXBdD3GBnL1f55F5366t1iBhT5k8nVeIRK07OmSMSQEAXXMQFrjgD726uDmveuuEeBMVRrsPVsjwpKWp9NPRIZKOrsH9mC2VMDuqpbzDh0aPCa9IcFDYlQYgrFHw60NVSRQD6Av5-TdufbP6QktNwczHb2oaeVknLbeysHnrGHTB4Ejwny-_PUsozwFgzb-e3CBt7ucxavMSJTnGv09ywApVfhk3EYo04AcmhyyJAKGf1-pD62ubt0UuFmIBW9SNCBTFvFKAuThwFMavcekgDzFNkt8jYDR99PUFMcHo0xqcfpxMQBP2V8B]--></g></svg>