<svg xmlns="http://www.w3.org/2000/svg" xmlns:xlink="http://www.w3.org/1999/xlink" contentStyleType="text/css" height="1233px" preserveAspectRatio="none" style="width:1776px;height:1233px;background:#FFFFFF;" version="1.1" viewBox="0 0 1776 1233" width="1776px" zoomAndPan="magnify"><defs/><g><rect fill="none" height="20.9531" style="stroke:none;stroke-width:1.0;" width="1743.5" x="15" y="12.7451"/><path d="M379.8125,38.6982 L379.8125,94.0967 L548.8125,94.0967 L548.8125,48.6982 L538.8125,38.6982 L379.8125,38.6982 " fill="#FEFFDD" style="stroke:#181818;stroke-width:0.5;"/><path d="M538.8125,38.6982 L538.8125,48.6982 L548.8125,48.6982 L538.8125,38.6982 " fill="#FEFFDD" style="stroke:#181818;stroke-width:0.5;"/><text fill="#000000" font-family="sans-serif" font-size="13" lengthAdjust="spacing" textLength="95" x="385.8125" y="55.7651">&#171;precondition&#187;</text><text fill="#000000" font-family="sans-serif" font-size="13" lengthAdjust="spacing" textLength="110" x="385.8125" y="70.8979">Syst&#233;m je online.</text><text fill="#000000" font-family="sans-serif" font-size="13" lengthAdjust="spacing" textLength="148" x="385.8125" y="86.0308">U&#382;ivatel nen&#237; p&#345;ihl&#225;&#353;en.</text><ellipse cx="349.8125" cy="66.3975" fill="#222222" rx="10" ry="10" style="stroke:#222222;stroke-width:1.0;"/><rect fill="#F1F1F1" height="33.9688" rx="12.5" ry="12.5" style="stroke:#181818;stroke-width:0.5;" width="191" x="254.3125" y="114.0967"/><text fill="#000000" font-family="sans-serif" font-size="12" lengthAdjust="spacing" textLength="171" x="264.3125" y="135.2354">Otev&#345;&#237;t p&#345;ihla&#353;ovac&#237; str&#225;nku</text><rect fill="#F1F1F1" height="33.9688" rx="12.5" ry="12.5" style="stroke:#181818;stroke-width:0.5;" width="150" x="274.8125" y="168.0654"/><text fill="#000000" font-family="sans-serif" font-size="12" lengthAdjust="spacing" textLength="130" x="284.8125" y="189.2041">Zadat jm&#233;no a heslo</text><rect fill="#F1F1F1" height="33.9688" rx="12.5" ry="12.5" style="stroke:#181818;stroke-width:0.5;" width="124" x="287.8125" y="222.0342"/><text fill="#000000" font-family="sans-serif" font-size="12" lengthAdjust="spacing" textLength="104" x="297.8125" y="243.1729">Odeslat formul&#225;&#345;</text><rect fill="#F1F1F1" height="33.9688" rx="12.5" ry="12.5" style="stroke:#181818;stroke-width:0.5;" width="201" x="21" y="498.5186"/><text fill="#000000" font-family="sans-serif" font-size="12" lengthAdjust="spacing" textLength="181" x="31" y="519.6572">Pou&#382;it&#237; informa&#269;n&#237;ho syst&#233;mu</text><ellipse cx="121.5" cy="577.4873" fill="none" rx="10" ry="10" style="stroke:#222222;stroke-width:1.5;"/><line style="stroke:#222222;stroke-width:2.5;" x1="115.3128" x2="127.6872" y1="571.3001" y2="583.6745"/><line style="stroke:#222222;stroke-width:2.5;" x1="127.6872" x2="115.3128" y1="571.3001" y2="583.6745"/><polygon fill="#F1F1F1" points="386.75,542.5186,423.75,542.5186,435.75,555.3232,423.75,568.1279,386.75,568.1279,374.75,555.3232,386.75,542.5186" style="stroke:#181818;stroke-width:0.5;"/><text fill="#000000" font-family="sans-serif" font-size="11" lengthAdjust="spacing" textLength="32" x="386.75" y="552.729">Reset</text><text fill="#000000" font-family="sans-serif" font-size="11" lengthAdjust="spacing" textLength="37" x="386.75" y="565.5337">hesla?</text><text fill="#000000" font-family="sans-serif" font-size="11" lengthAdjust="spacing" textLength="15" x="359.75" y="552.729">Ne</text><text fill="#000000" font-family="sans-serif" font-size="11" lengthAdjust="spacing" textLength="21" x="435.75" y="552.729">Ano</text><rect fill="#F1F1F1" height="33.9688" rx="12.5" ry="12.5" style="stroke:#181818;stroke-width:0.5;" width="98" x="232" y="588.1279"/><text fill="#000000" font-family="sans-serif" font-size="12" lengthAdjust="spacing" textLength="78" x="242" y="609.2666">Zkusit znovu</text><ellipse cx="281" cy="653.0967" fill="none" rx="11" ry="11" style="stroke:#222222;stroke-width:1.0;"/><ellipse cx="281" cy="653.0967" fill="#222222" rx="6" ry="6" style="stroke:#222222;stroke-width:1.0;"/><rect fill="#F1F1F1" height="33.9688" rx="12.5" ry="12.5" style="stroke:#181818;stroke-width:0.5;" width="202" x="428.5" y="588.1279"/><text fill="#000000" font-family="sans-serif" font-size="12" lengthAdjust="spacing" textLength="182" x="438.5" y="609.2666">Kliknout "Zampoenut&#233; heslo"</text><rect fill="#F1F1F1" height="33.9688" rx="12.5" ry="12.5" style="stroke:#181818;stroke-width:0.5;" width="180" x="439.5" y="710.0342"/><text fill="#000000" font-family="sans-serif" font-size="12" lengthAdjust="spacing" textLength="160" x="449.5" y="731.1729">Zadat registrovan&#253; e-mail</text><rect fill="#F1F1F1" height="33.9688" rx="12.5" ry="12.5" style="stroke:#181818;stroke-width:0.5;" width="102" x="478.5" y="923.9404"/><text fill="#000000" font-family="sans-serif" font-size="12" lengthAdjust="spacing" textLength="82" x="488.5" y="945.0791">Zm&#283;nit heslo</text><rect fill="#F1F1F1" height="33.9688" rx="12.5" ry="12.5" style="stroke:#181818;stroke-width:0.5;" width="98" x="480.5" y="977.9092"/><text fill="#000000" font-family="sans-serif" font-size="12" lengthAdjust="spacing" textLength="78" x="490.5" y="999.0479">Zkusit znovu</text><ellipse cx="529.5" cy="1042.8779" fill="none" rx="11" ry="11" style="stroke:#222222;stroke-width:1.0;"/><ellipse cx="529.5" cy="1042.8779" fill="#222222" rx="6" ry="6" style="stroke:#222222;stroke-width:1.0;"/><rect fill="#F1F1F1" height="33.9688" rx="12.5" ry="12.5" style="stroke:#181818;stroke-width:0.5;" width="113" x="551.625" y="1073.8779"/><text fill="#000000" font-family="sans-serif" font-size="12" lengthAdjust="spacing" textLength="93" x="561.625" y="1095.0166">Vy&#269;kat timeout</text><rect fill="#F1F1F1" height="33.9688" rx="12.5" ry="12.5" style="stroke:#181818;stroke-width:0.5;" width="98" x="559.125" y="1127.8467"/><text fill="#000000" font-family="sans-serif" font-size="12" lengthAdjust="spacing" textLength="78" x="569.125" y="1148.9854">Zkusit znovu</text><ellipse cx="608.125" cy="1192.8154" fill="none" rx="11" ry="11" style="stroke:#222222;stroke-width:1.0;"/><ellipse cx="608.125" cy="1192.8154" fill="#222222" rx="6" ry="6" style="stroke:#222222;stroke-width:1.0;"/><line style="stroke:#000000;stroke-width:1.5;" x1="15" x2="15" y1="12.7451" y2="1221.3818"/><rect fill="#F1F1F1" height="33.9688" rx="12.5" ry="12.5" style="stroke:#181818;stroke-width:0.5;" width="173" x="906.8125" y="276.0029"/><text fill="#000000" font-family="sans-serif" font-size="12" lengthAdjust="spacing" textLength="153" x="916.8125" y="297.1416">Ov&#283;&#345;it p&#345;ihla&#353;ovac&#237; &#250;daje</text><polygon fill="#F1F1F1" points="975.8125,329.9717,1010.8125,329.9717,1022.8125,342.7764,1010.8125,355.5811,975.8125,355.5811,963.8125,342.7764,975.8125,329.9717" style="stroke:#181818;stroke-width:0.5;"/><text fill="#000000" font-family="sans-serif" font-size="11" lengthAdjust="spacing" textLength="32" x="975.8125" y="340.1821">&#218;daje</text><text fill="#000000" font-family="sans-serif" font-size="11" lengthAdjust="spacing" textLength="35" x="975.8125" y="352.9868">platn&#233;</text><text fill="#000000" font-family="sans-serif" font-size="11" lengthAdjust="spacing" textLength="21" x="942.8125" y="340.1821">Ano</text><text fill="#000000" font-family="sans-serif" font-size="11" lengthAdjust="spacing" textLength="15" x="1022.8125" y="340.1821">Ne</text><rect fill="#F1F1F1" height="33.9688" rx="12.5" ry="12.5" style="stroke:#181818;stroke-width:0.5;" width="104" x="718.125" y="375.5811"/><text fill="#000000" font-family="sans-serif" font-size="12" lengthAdjust="spacing" textLength="84" x="728.125" y="396.7197">Vytvo&#345;it relaci</text><rect fill="#F1F1F1" height="33.9688" rx="12.5" ry="12.5" style="stroke:#181818;stroke-width:0.5;" width="191" x="674.625" y="429.5498"/><text fill="#000000" font-family="sans-serif" font-size="12" lengthAdjust="spacing" textLength="171" x="684.625" y="450.6885">P&#345;esm&#283;rovat na dashboard</text><rect fill="#F1F1F1" height="33.9688" rx="12.5" ry="12.5" style="stroke:#181818;stroke-width:0.5;" width="200" x="1151.625" y="375.5811"/><text fill="#000000" font-family="sans-serif" font-size="12" lengthAdjust="spacing" textLength="180" x="1161.625" y="396.7197">Inkrementovat po&#269;et pokus&#367;</text><polygon fill="#F1F1F1" points="1215.125,429.5498,1288.125,429.5498,1300.125,441.5498,1288.125,453.5498,1215.125,453.5498,1203.125,441.5498,1215.125,429.5498" style="stroke:#181818;stroke-width:0.5;"/><text fill="#000000" font-family="sans-serif" font-size="11" lengthAdjust="spacing" textLength="73" x="1215.125" y="445.3579">Pokusy &gt;= 3</text><text fill="#000000" font-family="sans-serif" font-size="11" lengthAdjust="spacing" textLength="15" x="1188.125" y="438.9556">Ne</text><text fill="#000000" font-family="sans-serif" font-size="11" lengthAdjust="spacing" textLength="21" x="1300.125" y="438.9556">Ano</text><rect fill="#F1F1F1" height="33.9688" rx="12.5" ry="12.5" style="stroke:#181818;stroke-width:0.5;" width="178" x="959.75" y="473.5498"/><text fill="#000000" font-family="sans-serif" font-size="12" lengthAdjust="spacing" textLength="158" x="969.75" y="494.6885">Zobrazit chybovou zpr&#225;vu</text><rect fill="#F1F1F1" height="47.9375" rx="12.5" ry="12.5" style="stroke:#181818;stroke-width:0.5;" width="128" x="1109" y="642.0967"/><text fill="#000000" font-family="sans-serif" font-size="12" lengthAdjust="spacing" textLength="104" x="1119" y="663.2354">Zobrazit formu&#225;&#345;</text><text fill="#000000" font-family="sans-serif" font-size="12" lengthAdjust="spacing" textLength="103" x="1119" y="677.2041">pro zm&#283;nu hesla</text><rect fill="#555555" height="6" rx="2.5" ry="2.5" style="stroke:#555555;stroke-width:1.0;" width="359" x="993.5" y="764.0029"/><rect fill="#F1F1F1" height="33.9688" rx="12.5" ry="12.5" style="stroke:#181818;stroke-width:0.5;" width="128" x="1007.5" y="790.0029"/><text fill="#000000" font-family="sans-serif" font-size="12" lengthAdjust="spacing" textLength="108" x="1017.5" y="811.1416">Ov&#283;&#345;it e-mail v DB</text><rect fill="#F1F1F1" height="33.9688" rx="12.5" ry="12.5" style="stroke:#181818;stroke-width:0.5;" width="175" x="1163.5" y="790.0029"/><text fill="#000000" font-family="sans-serif" font-size="12" lengthAdjust="spacing" textLength="155" x="1173.5" y="811.1416">Vygenerovat reset token</text><rect fill="#555555" height="6" rx="2.5" ry="2.5" style="stroke:#555555;stroke-width:1.0;" width="359" x="993.5" y="843.9717"/><path d="M875.625,1180.249 L875.625,1205.3818 L1220.625,1205.3818 L1220.625,1190.249 L1210.625,1180.249 L875.625,1180.249 " fill="#FEFFDD" style="stroke:#181818;stroke-width:0.5;"/><path d="M1210.625,1180.249 L1210.625,1190.249 L1220.625,1190.249 L1210.625,1180.249 " fill="#FEFFDD" style="stroke:#181818;stroke-width:0.5;"/><text fill="#000000" font-family="sans-serif" font-size="13" lengthAdjust="spacing" textLength="324" x="881.625" y="1197.3159">&#171;postcondition&#187; U&#382;ivatel pou&#382;il informa&#269;n&#237; syst&#233;m.</text><line style="stroke:#000000;stroke-width:1.5;" x1="668.625" x2="668.625" y1="12.7451" y2="1221.3818"/><rect fill="#F1F1F1" height="33.9688" rx="12.5" ry="12.5" style="stroke:#181818;stroke-width:0.5;" width="236" x="1362.5" y="869.9717"/><text fill="#000000" font-family="sans-serif" font-size="12" lengthAdjust="spacing" textLength="216" x="1372.5" y="891.1104">Odeslat e-mail s odkazem na reset</text><rect fill="#F1F1F1" height="33.9688" rx="12.5" ry="12.5" style="stroke:#181818;stroke-width:0.5;" width="116" x="1622.5" y="473.5498"/><text fill="#000000" font-family="sans-serif" font-size="12" lengthAdjust="spacing" textLength="96" x="1632.5" y="494.6885">Timeout 15 min</text><rect fill="#F1F1F1" height="47.9375" rx="12.5" ry="12.5" style="stroke:#181818;stroke-width:0.5;" width="144" x="1608.5" y="542.5186"/><text fill="#000000" font-family="sans-serif" font-size="12" lengthAdjust="spacing" textLength="121" x="1618.5" y="563.6572">Odeslat upozorn&#283;n&#237;</text><text fill="#000000" font-family="sans-serif" font-size="12" lengthAdjust="spacing" textLength="124" x="1618.5" y="577.626">na zablokov&#225;n&#237; &#250;&#269;tu</text><line style="stroke:#000000;stroke-width:1.5;" x1="1356.5" x2="1356.5" y1="12.7451" y2="1221.3818"/><line style="stroke:#000000;stroke-width:1.5;" x1="1756.5" x2="1756.5" y1="12.7451" y2="1221.3818"/><line style="stroke:#181818;stroke-width:1.0;" x1="349.8125" x2="349.8125" y1="76.3975" y2="114.0967"/><polygon fill="#181818" points="345.8125,104.0967,349.8125,114.0967,353.8125,104.0967,349.8125,108.0967" style="stroke:#181818;stroke-width:1.0;"/><line style="stroke:#181818;stroke-width:1.0;" x1="349.8125" x2="349.8125" y1="148.0654" y2="168.0654"/><polygon fill="#181818" points="345.8125,158.0654,349.8125,168.0654,353.8125,158.0654,349.8125,162.0654" style="stroke:#181818;stroke-width:1.0;"/><line style="stroke:#181818;stroke-width:1.0;" x1="349.8125" x2="349.8125" y1="202.0342" y2="222.0342"/><polygon fill="#181818" points="345.8125,212.0342,349.8125,222.0342,353.8125,212.0342,349.8125,216.0342" style="stroke:#181818;stroke-width:1.0;"/><line style="stroke:#181818;stroke-width:1.0;" x1="121.5" x2="121.5" y1="532.4873" y2="567.4873"/><polygon fill="#181818" points="117.5,557.4873,121.5,567.4873,125.5,557.4873,121.5,561.4873" style="stroke:#181818;stroke-width:1.0;"/><line style="stroke:#181818;stroke-width:1.0;" x1="281" x2="281" y1="622.0967" y2="642.0967"/><polygon fill="#181818" points="277,632.0967,281,642.0967,285,632.0967,281,636.0967" style="stroke:#181818;stroke-width:1.0;"/><line style="stroke:#181818;stroke-width:1.0;" x1="529.5" x2="529.5" y1="957.9092" y2="977.9092"/><polygon fill="#181818" points="525.5,967.9092,529.5,977.9092,533.5,967.9092,529.5,971.9092" style="stroke:#181818;stroke-width:1.0;"/><line style="stroke:#181818;stroke-width:1.0;" x1="529.5" x2="529.5" y1="1011.8779" y2="1031.8779"/><polygon fill="#181818" points="525.5,1021.8779,529.5,1031.8779,533.5,1021.8779,529.5,1025.8779" style="stroke:#181818;stroke-width:1.0;"/><line style="stroke:#181818;stroke-width:1.0;" x1="374.75" x2="281" y1="555.3232" y2="555.3232"/><line style="stroke:#181818;stroke-width:1.0;" x1="281" x2="281" y1="555.3232" y2="588.1279"/><polygon fill="#181818" points="277,578.1279,281,588.1279,285,578.1279,281,582.1279" style="stroke:#181818;stroke-width:1.0;"/><line style="stroke:#181818;stroke-width:1.0;" x1="435.75" x2="529.5" y1="555.3232" y2="555.3232"/><line style="stroke:#181818;stroke-width:1.0;" x1="529.5" x2="529.5" y1="555.3232" y2="588.1279"/><polygon fill="#181818" points="525.5,578.1279,529.5,588.1279,533.5,578.1279,529.5,582.1279" style="stroke:#181818;stroke-width:1.0;"/><line style="stroke:#181818;stroke-width:1.0;" x1="608.125" x2="608.125" y1="1107.8467" y2="1127.8467"/><polygon fill="#181818" points="604.125,1117.8467,608.125,1127.8467,612.125,1117.8467,608.125,1121.8467" style="stroke:#181818;stroke-width:1.0;"/><line style="stroke:#181818;stroke-width:1.0;" x1="608.125" x2="608.125" y1="1161.8154" y2="1181.8154"/><polygon fill="#181818" points="604.125,1171.8154,608.125,1181.8154,612.125,1171.8154,608.125,1175.8154" style="stroke:#181818;stroke-width:1.0;"/><line style="stroke:#181818;stroke-width:1.0;" x1="770.125" x2="770.125" y1="409.5498" y2="429.5498"/><polygon fill="#181818" points="766.125,419.5498,770.125,429.5498,774.125,419.5498,770.125,423.5498" style="stroke:#181818;stroke-width:1.0;"/><line style="stroke:#181818;stroke-width:1.0;" x1="1071.5" x2="1071.5" y1="770.0029" y2="790.0029"/><polygon fill="#181818" points="1067.5,780.0029,1071.5,790.0029,1075.5,780.0029,1071.5,784.0029" style="stroke:#181818;stroke-width:1.0;"/><line style="stroke:#181818;stroke-width:1.0;" x1="1251" x2="1251" y1="770.0029" y2="790.0029"/><polygon fill="#181818" points="1247,780.0029,1251,790.0029,1255,780.0029,1251,784.0029" style="stroke:#181818;stroke-width:1.0;"/><line style="stroke:#181818;stroke-width:1.0;" x1="1071.5" x2="1071.5" y1="823.9717" y2="843.9717"/><polygon fill="#181818" points="1067.5,833.9717,1071.5,843.9717,1075.5,833.9717,1071.5,837.9717" style="stroke:#181818;stroke-width:1.0;"/><line style="stroke:#181818;stroke-width:1.0;" x1="1251" x2="1251" y1="823.9717" y2="843.9717"/><polygon fill="#181818" points="1247,833.9717,1251,843.9717,1255,833.9717,1251,837.9717" style="stroke:#181818;stroke-width:1.0;"/><line style="stroke:#181818;stroke-width:1.0;" x1="1203.125" x2="1048.75" y1="441.5498" y2="441.5498"/><line style="stroke:#181818;stroke-width:1.0;" x1="1048.75" x2="1048.75" y1="441.5498" y2="473.5498"/><polygon fill="#181818" points="1044.75,463.5498,1048.75,473.5498,1052.75,463.5498,1048.75,467.5498" style="stroke:#181818;stroke-width:1.0;"/><line style="stroke:#181818;stroke-width:1.0;" x1="1251.625" x2="1251.625" y1="409.5498" y2="429.5498"/><polygon fill="#181818" points="1247.625,419.5498,1251.625,429.5498,1255.625,419.5498,1251.625,423.5498" style="stroke:#181818;stroke-width:1.0;"/><line style="stroke:#181818;stroke-width:1.0;" x1="963.8125" x2="770.125" y1="342.7764" y2="342.7764"/><line style="stroke:#181818;stroke-width:1.0;" x1="770.125" x2="770.125" y1="342.7764" y2="375.5811"/><polygon fill="#181818" points="766.125,365.5811,770.125,375.5811,774.125,365.5811,770.125,369.5811" style="stroke:#181818;stroke-width:1.0;"/><line style="stroke:#181818;stroke-width:1.0;" x1="1022.8125" x2="1251.625" y1="342.7764" y2="342.7764"/><line style="stroke:#181818;stroke-width:1.0;" x1="1251.625" x2="1251.625" y1="342.7764" y2="375.5811"/><polygon fill="#181818" points="1247.625,365.5811,1251.625,375.5811,1255.625,365.5811,1251.625,369.5811" style="stroke:#181818;stroke-width:1.0;"/><line style="stroke:#181818;stroke-width:1.0;" x1="993.3125" x2="993.3125" y1="309.9717" y2="329.9717"/><polygon fill="#181818" points="989.3125,319.9717,993.3125,329.9717,997.3125,319.9717,993.3125,323.9717" style="stroke:#181818;stroke-width:1.0;"/><line style="stroke:#181818;stroke-width:1.0;" x1="1680.5" x2="1680.5" y1="507.5186" y2="542.5186"/><polygon fill="#181818" points="1676.5,532.5186,1680.5,542.5186,1684.5,532.5186,1680.5,536.5186" style="stroke:#181818;stroke-width:1.0;"/><line style="stroke:#181818;stroke-width:1.0;" x1="349.8125" x2="349.8125" y1="256.0029" y2="261.0029"/><line style="stroke:#181818;stroke-width:1.0;" x1="349.8125" x2="993.3125" y1="261.0029" y2="261.0029"/><line style="stroke:#181818;stroke-width:1.0;" x1="993.3125" x2="993.3125" y1="261.0029" y2="276.0029"/><polygon fill="#181818" points="989.3125,266.0029,993.3125,276.0029,997.3125,266.0029,993.3125,270.0029" style="stroke:#181818;stroke-width:1.0;"/><line style="stroke:#181818;stroke-width:1.0;" x1="770.125" x2="770.125" y1="463.5186" y2="481.0186"/><line style="stroke:#181818;stroke-width:1.0;" x1="770.125" x2="121.5" y1="481.0186" y2="481.0186"/><line style="stroke:#181818;stroke-width:1.0;" x1="121.5" x2="121.5" y1="481.0186" y2="498.5186"/><polygon fill="#181818" points="117.5,488.5186,121.5,498.5186,125.5,488.5186,121.5,492.5186" style="stroke:#181818;stroke-width:1.0;"/><line style="stroke:#181818;stroke-width:1.0;" x1="529.5" x2="529.5" y1="622.0967" y2="627.0967"/><line style="stroke:#181818;stroke-width:1.0;" x1="529.5" x2="1173" y1="627.0967" y2="627.0967"/><line style="stroke:#181818;stroke-width:1.0;" x1="1173" x2="1173" y1="627.0967" y2="642.0967"/><polygon fill="#181818" points="1169,632.0967,1173,642.0967,1177,632.0967,1173,636.0967" style="stroke:#181818;stroke-width:1.0;"/><line style="stroke:#181818;stroke-width:1.0;" x1="1173" x2="1173" y1="690.0342" y2="695.0342"/><line style="stroke:#181818;stroke-width:1.0;" x1="1173" x2="529.5" y1="695.0342" y2="695.0342"/><line style="stroke:#181818;stroke-width:1.0;" x1="529.5" x2="529.5" y1="695.0342" y2="710.0342"/><polygon fill="#181818" points="525.5,700.0342,529.5,710.0342,533.5,700.0342,529.5,704.0342" style="stroke:#181818;stroke-width:1.0;"/><line style="stroke:#181818;stroke-width:1.0;" x1="529.5" x2="529.5" y1="744.0029" y2="749.0029"/><line style="stroke:#181818;stroke-width:1.0;" x1="529.5" x2="1173" y1="749.0029" y2="749.0029"/><line style="stroke:#181818;stroke-width:1.0;" x1="1173" x2="1173" y1="749.0029" y2="764.0029"/><polygon fill="#181818" points="1169,754.0029,1173,764.0029,1177,754.0029,1173,758.0029" style="stroke:#181818;stroke-width:1.0;"/><line style="stroke:#181818;stroke-width:1.0;" x1="1173" x2="1173" y1="849.9717" y2="854.9717"/><line style="stroke:#181818;stroke-width:1.0;" x1="1173" x2="1480.5" y1="854.9717" y2="854.9717"/><line style="stroke:#181818;stroke-width:1.0;" x1="1480.5" x2="1480.5" y1="854.9717" y2="869.9717"/><polygon fill="#181818" points="1476.5,859.9717,1480.5,869.9717,1484.5,859.9717,1480.5,863.9717" style="stroke:#181818;stroke-width:1.0;"/><line style="stroke:#181818;stroke-width:1.0;" x1="1480.5" x2="1480.5" y1="903.9404" y2="908.9404"/><line style="stroke:#181818;stroke-width:1.0;" x1="1480.5" x2="529.5" y1="908.9404" y2="908.9404"/><line style="stroke:#181818;stroke-width:1.0;" x1="529.5" x2="529.5" y1="908.9404" y2="923.9404"/><polygon fill="#181818" points="525.5,913.9404,529.5,923.9404,533.5,913.9404,529.5,917.9404" style="stroke:#181818;stroke-width:1.0;"/><line style="stroke:#181818;stroke-width:1.0;" x1="1048.75" x2="1048.75" y1="507.5186" y2="525.0186"/><line style="stroke:#181818;stroke-width:1.0;" x1="1048.75" x2="405.25" y1="525.0186" y2="525.0186"/><line style="stroke:#181818;stroke-width:1.0;" x1="405.25" x2="405.25" y1="525.0186" y2="542.5186"/><polygon fill="#181818" points="401.25,532.5186,405.25,542.5186,409.25,532.5186,405.25,536.5186" style="stroke:#181818;stroke-width:1.0;"/><line style="stroke:#181818;stroke-width:1.0;" x1="1300.125" x2="1680.5" y1="441.5498" y2="441.5498"/><line style="stroke:#181818;stroke-width:1.0;" x1="1680.5" x2="1680.5" y1="441.5498" y2="473.5498"/><polygon fill="#181818" points="1676.5,463.5498,1680.5,473.5498,1684.5,463.5498,1680.5,467.5498" style="stroke:#181818;stroke-width:1.0;"/><line style="stroke:#181818;stroke-width:1.0;" x1="1680.5" x2="1680.5" y1="590.4561" y2="1058.8779"/><line style="stroke:#181818;stroke-width:1.0;" x1="1680.5" x2="608.125" y1="1058.8779" y2="1058.8779"/><line style="stroke:#181818;stroke-width:1.0;" x1="608.125" x2="608.125" y1="1058.8779" y2="1073.8779"/><polygon fill="#181818" points="604.125,1063.8779,608.125,1073.8779,612.125,1063.8779,608.125,1067.8779" style="stroke:#181818;stroke-width:1.0;"/><text fill="#000000" font-family="sans-serif" font-size="18" lengthAdjust="spacing" textLength="72" x="308.8125" y="29.4531">U&#382;ivatel</text><text fill="#000000" font-family="sans-serif" font-size="18" lengthAdjust="spacing" textLength="65" x="983.0625" y="29.4531">Syst&#233;m</text><text fill="#000000" font-family="sans-serif" font-size="18" lengthAdjust="spacing" textLength="151" x="1484" y="29.4531">E-mailov&#253; server</text><!--SRC=[ZLGzRzj03DtrAuXCoT00HT75JbEqQ8QYG1EqJOR0ozcYxOiaKZYT15ZGN_0FS3Dvp11qBz0kilvNUIV97qaBr8jF4j_ZuoDvrNM6feBhvhSkbCKuoAmoDfZ6hAoc6H1R1ADdSpk0ixFKu8Gfr5OpdP-FwEiYi_L30dS8JB4cF1tHbWe8gNw4j5dfULolcpNIQJ2uj5Wqg_hHTXzKi-P2JIGmiwPUKvGFWy6j2fM5kwH-80O5SynYbjUNeHpamvHDaZlArJ2eH4C5dH09AJRtmlkSlVuPgZiS1dfwN7ztnn6bmaNrmucT8ns_8pu900Ot2rkmPp0OguaUkfTNpGgpP7DlXCm2AGXLDX-pCg7xN7aFVHpdKhsLT9gSIBLPYWLpXgpLbxjmf330ECFZp-Wo-W8S-2D51XCawvEal5cY-ulohFdXSAByoZqjuFmDl6fLjnG2lkMnKQMedimNOouuXp8LEmkVSK-Yf_c26TeHELlLsqCYHoKvXAWaxj4WlU7K7xtmpYiV_IdM4N5kuUXM9IaZvL9esx6Z7jsNUAZKTz4r4QGLXg4KWodtKBL5xdGxg1yBWpCjio8kKVqBy4MYTFotJC8VTKV1RWUZ1K017zuFzo91pPIcNVpDOeQ4RSEDymiiHqWzH9gunrzTECuABZmt5w9BT1TeUkNzv7R9C-0mKYKcRfOy-pyATfQ8vcu1_gj1ifxJu6cZEe7jh7pJ2RgElNmDYUugsYhCKoxPaEIj7qSayaerZZcIcjRarsYpjFqO-qG7ciMspJ8I6jlcwCYVA_PwszsLtvFxnbyrdDczksPtGybAk2MB3rQiNx3JFm00]--></g></svg>