<svg xmlns="http://www.w3.org/2000/svg" xmlns:xlink="http://www.w3.org/1999/xlink" contentStyleType="text/css" height="1288px" preserveAspectRatio="none" style="width:1745px;height:1288px;background:#FFFFFF;" version="1.1" viewBox="0 0 1745 1288" width="1745px" zoomAndPan="magnify"><defs/><g><rect fill="none" height="20.9531" style="stroke:none;stroke-width:1.0;" width="1712.3125" x="15" y="12.7451"/><ellipse cx="349.8125" cy="48.6982" fill="#222222" rx="10" ry="10" style="stroke:#222222;stroke-width:1.0;"/><rect fill="#F1F1F1" height="33.9688" rx="12.5" ry="12.5" style="stroke:#181818;stroke-width:0.5;" width="191" x="254.3125" y="122.6982"/><text fill="#000000" font-family="sans-serif" font-size="12" lengthAdjust="spacing" textLength="171" x="264.3125" y="143.8369">Otev&#345;&#237;t p&#345;ihla&#353;ovac&#237; str&#225;nku</text><rect fill="#F1F1F1" height="33.9688" rx="12.5" ry="12.5" style="stroke:#181818;stroke-width:0.5;" width="150" x="274.8125" y="176.667"/><text fill="#000000" font-family="sans-serif" font-size="12" lengthAdjust="spacing" textLength="130" x="284.8125" y="197.8057">Zadat jm&#233;no a heslo</text><rect fill="#F1F1F1" height="33.9688" rx="12.5" ry="12.5" style="stroke:#181818;stroke-width:0.5;" width="124" x="287.8125" y="230.6357"/><text fill="#000000" font-family="sans-serif" font-size="12" lengthAdjust="spacing" textLength="104" x="297.8125" y="251.7744">Odeslat formul&#225;&#345;</text><rect fill="#F1F1F1" height="33.9688" rx="12.5" ry="12.5" style="stroke:#181818;stroke-width:0.5;" width="201" x="21" y="507.1201"/><text fill="#000000" font-family="sans-serif" font-size="12" lengthAdjust="spacing" textLength="181" x="31" y="528.2588">Pou&#382;it&#237; informa&#269;n&#237;ho syst&#233;mu</text><ellipse cx="121.5" cy="586.0889" fill="none" rx="10" ry="10" style="stroke:#222222;stroke-width:1.5;"/><line style="stroke:#222222;stroke-width:2.5;" x1="115.3128" x2="127.6872" y1="579.9017" y2="592.2761"/><line style="stroke:#222222;stroke-width:2.5;" x1="127.6872" x2="115.3128" y1="579.9017" y2="592.2761"/><polygon fill="#F1F1F1" points="386.75,551.1201,423.75,551.1201,435.75,563.9248,423.75,576.7295,386.75,576.7295,374.75,563.9248,386.75,551.1201" style="stroke:#181818;stroke-width:0.5;"/><text fill="#000000" font-family="sans-serif" font-size="11" lengthAdjust="spacing" textLength="32" x="386.75" y="561.3306">Reset</text><text fill="#000000" font-family="sans-serif" font-size="11" lengthAdjust="spacing" textLength="37" x="386.75" y="574.1353">hesla?</text><text fill="#000000" font-family="sans-serif" font-size="11" lengthAdjust="spacing" textLength="15" x="359.75" y="561.3306">Ne</text><text fill="#000000" font-family="sans-serif" font-size="11" lengthAdjust="spacing" textLength="21" x="435.75" y="561.3306">Ano</text><rect fill="#F1F1F1" height="33.9688" rx="12.5" ry="12.5" style="stroke:#181818;stroke-width:0.5;" width="98" x="232" y="596.7295"/><text fill="#000000" font-family="sans-serif" font-size="12" lengthAdjust="spacing" textLength="78" x="242" y="617.8682">Zkusit znovu</text><ellipse cx="281" cy="661.6982" fill="none" rx="11" ry="11" style="stroke:#222222;stroke-width:1.0;"/><ellipse cx="281" cy="661.6982" fill="#222222" rx="6" ry="6" style="stroke:#222222;stroke-width:1.0;"/><rect fill="#F1F1F1" height="33.9688" rx="12.5" ry="12.5" style="stroke:#181818;stroke-width:0.5;" width="202" x="428.5" y="596.7295"/><text fill="#000000" font-family="sans-serif" font-size="12" lengthAdjust="spacing" textLength="182" x="438.5" y="617.8682">Kliknout "Zampoenut&#233; heslo"</text><rect fill="#F1F1F1" height="33.9688" rx="12.5" ry="12.5" style="stroke:#181818;stroke-width:0.5;" width="180" x="439.5" y="718.6357"/><text fill="#000000" font-family="sans-serif" font-size="12" lengthAdjust="spacing" textLength="160" x="449.5" y="739.7744">Zadat registrovan&#253; e-mail</text><rect fill="#F1F1F1" height="33.9688" rx="12.5" ry="12.5" style="stroke:#181818;stroke-width:0.5;" width="102" x="478.5" y="932.542"/><text fill="#000000" font-family="sans-serif" font-size="12" lengthAdjust="spacing" textLength="82" x="488.5" y="953.6807">Zm&#283;nit heslo</text><rect fill="#F1F1F1" height="33.9688" rx="12.5" ry="12.5" style="stroke:#181818;stroke-width:0.5;" width="98" x="480.5" y="986.5107"/><text fill="#000000" font-family="sans-serif" font-size="12" lengthAdjust="spacing" textLength="78" x="490.5" y="1007.6494">Zkusit znovu</text><ellipse cx="529.5" cy="1051.4795" fill="none" rx="11" ry="11" style="stroke:#222222;stroke-width:1.0;"/><ellipse cx="529.5" cy="1051.4795" fill="#222222" rx="6" ry="6" style="stroke:#222222;stroke-width:1.0;"/><rect fill="#F1F1F1" height="33.9688" rx="12.5" ry="12.5" style="stroke:#181818;stroke-width:0.5;" width="113" x="551.625" y="1082.4795"/><text fill="#000000" font-family="sans-serif" font-size="12" lengthAdjust="spacing" textLength="93" x="561.625" y="1103.6182">Vy&#269;kat timeout</text><rect fill="#F1F1F1" height="33.9688" rx="12.5" ry="12.5" style="stroke:#181818;stroke-width:0.5;" width="98" x="559.125" y="1136.4482"/><text fill="#000000" font-family="sans-serif" font-size="12" lengthAdjust="spacing" textLength="78" x="569.125" y="1157.5869">Zkusit znovu</text><ellipse cx="608.125" cy="1201.417" fill="none" rx="11" ry="11" style="stroke:#222222;stroke-width:1.0;"/><ellipse cx="608.125" cy="1201.417" fill="#222222" rx="6" ry="6" style="stroke:#222222;stroke-width:1.0;"/><polygon fill="#F1F1F1" points="349.8125,78.6982,361.8125,90.6982,349.8125,102.6982,337.8125,90.6982,349.8125,78.6982" style="stroke:#181818;stroke-width:0.5;"/><line style="stroke:#000000;stroke-width:1.5;" x1="15" x2="15" y1="12.7451" y2="1276.417"/><rect fill="#F1F1F1" height="33.9688" rx="12.5" ry="12.5" style="stroke:#181818;stroke-width:0.5;" width="173" x="875.625" y="284.6045"/><text fill="#000000" font-family="sans-serif" font-size="12" lengthAdjust="spacing" textLength="153" x="885.625" y="305.7432">Ov&#283;&#345;it p&#345;ihla&#353;ovac&#237; &#250;daje</text><polygon fill="#F1F1F1" points="944.625,338.5732,979.625,338.5732,991.625,351.3779,979.625,364.1826,944.625,364.1826,932.625,351.3779,944.625,338.5732" style="stroke:#181818;stroke-width:0.5;"/><text fill="#000000" font-family="sans-serif" font-size="11" lengthAdjust="spacing" textLength="32" x="944.625" y="348.7837">&#218;daje</text><text fill="#000000" font-family="sans-serif" font-size="11" lengthAdjust="spacing" textLength="35" x="944.625" y="361.5884">platn&#233;</text><text fill="#000000" font-family="sans-serif" font-size="11" lengthAdjust="spacing" textLength="21" x="911.625" y="348.7837">Ano</text><text fill="#000000" font-family="sans-serif" font-size="11" lengthAdjust="spacing" textLength="15" x="991.625" y="348.7837">Ne</text><rect fill="#F1F1F1" height="33.9688" rx="12.5" ry="12.5" style="stroke:#181818;stroke-width:0.5;" width="104" x="718.125" y="384.1826"/><text fill="#000000" font-family="sans-serif" font-size="12" lengthAdjust="spacing" textLength="84" x="728.125" y="405.3213">Vytvo&#345;it relaci</text><rect fill="#F1F1F1" height="33.9688" rx="12.5" ry="12.5" style="stroke:#181818;stroke-width:0.5;" width="191" x="674.625" y="438.1514"/><text fill="#000000" font-family="sans-serif" font-size="12" lengthAdjust="spacing" textLength="171" x="684.625" y="459.29">P&#345;esm&#283;rovat na dashboard</text><rect fill="#F1F1F1" height="33.9688" rx="12.5" ry="12.5" style="stroke:#181818;stroke-width:0.5;" width="200" x="1120.4375" y="384.1826"/><text fill="#000000" font-family="sans-serif" font-size="12" lengthAdjust="spacing" textLength="180" x="1130.4375" y="405.3213">Inkrementovat po&#269;et pokus&#367;</text><polygon fill="#F1F1F1" points="1183.9375,438.1514,1256.9375,438.1514,1268.9375,450.1514,1256.9375,462.1514,1183.9375,462.1514,1171.9375,450.1514,1183.9375,438.1514" style="stroke:#181818;stroke-width:0.5;"/><text fill="#000000" font-family="sans-serif" font-size="11" lengthAdjust="spacing" textLength="73" x="1183.9375" y="453.9595">Pokusy &gt;= 3</text><text fill="#000000" font-family="sans-serif" font-size="11" lengthAdjust="spacing" textLength="15" x="1156.9375" y="447.5571">Ne</text><text fill="#000000" font-family="sans-serif" font-size="11" lengthAdjust="spacing" textLength="21" x="1268.9375" y="447.5571">Ano</text><rect fill="#F1F1F1" height="33.9688" rx="12.5" ry="12.5" style="stroke:#181818;stroke-width:0.5;" width="178" x="928.5625" y="482.1514"/><text fill="#000000" font-family="sans-serif" font-size="12" lengthAdjust="spacing" textLength="158" x="938.5625" y="503.29">Zobrazit chybovou zpr&#225;vu</text><rect fill="#F1F1F1" height="47.9375" rx="12.5" ry="12.5" style="stroke:#181818;stroke-width:0.5;" width="128" x="1077.8125" y="650.6982"/><text fill="#000000" font-family="sans-serif" font-size="12" lengthAdjust="spacing" textLength="104" x="1087.8125" y="671.8369">Zobrazit formu&#225;&#345;</text><text fill="#000000" font-family="sans-serif" font-size="12" lengthAdjust="spacing" textLength="103" x="1087.8125" y="685.8057">pro zm&#283;nu hesla</text><rect fill="#555555" height="6" rx="2.5" ry="2.5" style="stroke:#555555;stroke-width:1.0;" width="359" x="962.3125" y="772.6045"/><rect fill="#F1F1F1" height="33.9688" rx="12.5" ry="12.5" style="stroke:#181818;stroke-width:0.5;" width="128" x="976.3125" y="798.6045"/><text fill="#000000" font-family="sans-serif" font-size="12" lengthAdjust="spacing" textLength="108" x="986.3125" y="819.7432">Ov&#283;&#345;it e-mail v DB</text><rect fill="#F1F1F1" height="33.9688" rx="12.5" ry="12.5" style="stroke:#181818;stroke-width:0.5;" width="175" x="1132.3125" y="798.6045"/><text fill="#000000" font-family="sans-serif" font-size="12" lengthAdjust="spacing" textLength="155" x="1142.3125" y="819.7432">Vygenerovat reset token</text><rect fill="#555555" height="6" rx="2.5" ry="2.5" style="stroke:#555555;stroke-width:1.0;" width="359" x="962.3125" y="852.5732"/><line style="stroke:#000000;stroke-width:1.5;" x1="668.625" x2="668.625" y1="12.7451" y2="1276.417"/><rect fill="#F1F1F1" height="33.9688" rx="12.5" ry="12.5" style="stroke:#181818;stroke-width:0.5;" width="236" x="1331.3125" y="878.5732"/><text fill="#000000" font-family="sans-serif" font-size="12" lengthAdjust="spacing" textLength="216" x="1341.3125" y="899.7119">Odeslat e-mail s odkazem na reset</text><rect fill="#F1F1F1" height="33.9688" rx="12.5" ry="12.5" style="stroke:#181818;stroke-width:0.5;" width="116" x="1591.3125" y="482.1514"/><text fill="#000000" font-family="sans-serif" font-size="12" lengthAdjust="spacing" textLength="96" x="1601.3125" y="503.29">Timeout 15 min</text><rect fill="#F1F1F1" height="47.9375" rx="12.5" ry="12.5" style="stroke:#181818;stroke-width:0.5;" width="144" x="1577.3125" y="551.1201"/><text fill="#000000" font-family="sans-serif" font-size="12" lengthAdjust="spacing" textLength="121" x="1587.3125" y="572.2588">Odeslat upozorn&#283;n&#237;</text><text fill="#000000" font-family="sans-serif" font-size="12" lengthAdjust="spacing" textLength="124" x="1587.3125" y="586.2275">na zablokov&#225;n&#237; &#250;&#269;tu</text><line style="stroke:#000000;stroke-width:1.5;" x1="1325.3125" x2="1325.3125" y1="12.7451" y2="1276.417"/><line style="stroke:#000000;stroke-width:1.5;" x1="1725.3125" x2="1725.3125" y1="12.7451" y2="1276.417"/><line style="stroke:#181818;stroke-width:1.0;" x1="349.8125" x2="349.8125" y1="156.667" y2="176.667"/><polygon fill="#181818" points="345.8125,166.667,349.8125,176.667,353.8125,166.667,349.8125,170.667" style="stroke:#181818;stroke-width:1.0;"/><line style="stroke:#181818;stroke-width:1.0;" x1="349.8125" x2="349.8125" y1="210.6357" y2="230.6357"/><polygon fill="#181818" points="345.8125,220.6357,349.8125,230.6357,353.8125,220.6357,349.8125,224.6357" style="stroke:#181818;stroke-width:1.0;"/><line style="stroke:#181818;stroke-width:1.0;" x1="121.5" x2="121.5" y1="541.0889" y2="576.0889"/><polygon fill="#181818" points="117.5,566.0889,121.5,576.0889,125.5,566.0889,121.5,570.0889" style="stroke:#181818;stroke-width:1.0;"/><line style="stroke:#181818;stroke-width:1.0;" x1="281" x2="281" y1="630.6982" y2="650.6982"/><polygon fill="#181818" points="277,640.6982,281,650.6982,285,640.6982,281,644.6982" style="stroke:#181818;stroke-width:1.0;"/><line style="stroke:#181818;stroke-width:1.0;" x1="529.5" x2="529.5" y1="966.5107" y2="986.5107"/><polygon fill="#181818" points="525.5,976.5107,529.5,986.5107,533.5,976.5107,529.5,980.5107" style="stroke:#181818;stroke-width:1.0;"/><line style="stroke:#181818;stroke-width:1.0;" x1="529.5" x2="529.5" y1="1020.4795" y2="1040.4795"/><polygon fill="#181818" points="525.5,1030.4795,529.5,1040.4795,533.5,1030.4795,529.5,1034.4795" style="stroke:#181818;stroke-width:1.0;"/><line style="stroke:#181818;stroke-width:1.0;" x1="374.75" x2="281" y1="563.9248" y2="563.9248"/><line style="stroke:#181818;stroke-width:1.0;" x1="281" x2="281" y1="563.9248" y2="596.7295"/><polygon fill="#181818" points="277,586.7295,281,596.7295,285,586.7295,281,590.7295" style="stroke:#181818;stroke-width:1.0;"/><line style="stroke:#181818;stroke-width:1.0;" x1="435.75" x2="529.5" y1="563.9248" y2="563.9248"/><line style="stroke:#181818;stroke-width:1.0;" x1="529.5" x2="529.5" y1="563.9248" y2="596.7295"/><polygon fill="#181818" points="525.5,586.7295,529.5,596.7295,533.5,586.7295,529.5,590.7295" style="stroke:#181818;stroke-width:1.0;"/><line style="stroke:#181818;stroke-width:1.0;" x1="608.125" x2="608.125" y1="1116.4482" y2="1136.4482"/><polygon fill="#181818" points="604.125,1126.4482,608.125,1136.4482,612.125,1126.4482,608.125,1130.4482" style="stroke:#181818;stroke-width:1.0;"/><line style="stroke:#181818;stroke-width:1.0;" x1="608.125" x2="608.125" y1="1170.417" y2="1190.417"/><polygon fill="#181818" points="604.125,1180.417,608.125,1190.417,612.125,1180.417,608.125,1184.417" style="stroke:#181818;stroke-width:1.0;"/><line style="stroke:#181818;stroke-width:1.0;" x1="349.8125" x2="349.8125" y1="102.6982" y2="122.6982"/><polygon fill="#181818" points="345.8125,112.6982,349.8125,122.6982,353.8125,112.6982,349.8125,116.6982" style="stroke:#181818;stroke-width:1.0;"/><line style="stroke:#181818;stroke-width:1.0;" x1="349.8125" x2="349.8125" y1="58.6982" y2="78.6982"/><polygon fill="#181818" points="345.8125,68.6982,349.8125,78.6982,353.8125,68.6982,349.8125,72.6982" style="stroke:#181818;stroke-width:1.0;"/><line style="stroke:#181818;stroke-width:1.0;" x1="770.125" x2="770.125" y1="418.1514" y2="438.1514"/><polygon fill="#181818" points="766.125,428.1514,770.125,438.1514,774.125,428.1514,770.125,432.1514" style="stroke:#181818;stroke-width:1.0;"/><line style="stroke:#181818;stroke-width:1.0;" x1="1040.3125" x2="1040.3125" y1="778.6045" y2="798.6045"/><polygon fill="#181818" points="1036.3125,788.6045,1040.3125,798.6045,1044.3125,788.6045,1040.3125,792.6045" style="stroke:#181818;stroke-width:1.0;"/><line style="stroke:#181818;stroke-width:1.0;" x1="1219.8125" x2="1219.8125" y1="778.6045" y2="798.6045"/><polygon fill="#181818" points="1215.8125,788.6045,1219.8125,798.6045,1223.8125,788.6045,1219.8125,792.6045" style="stroke:#181818;stroke-width:1.0;"/><line style="stroke:#181818;stroke-width:1.0;" x1="1040.3125" x2="1040.3125" y1="832.5732" y2="852.5732"/><polygon fill="#181818" points="1036.3125,842.5732,1040.3125,852.5732,1044.3125,842.5732,1040.3125,846.5732" style="stroke:#181818;stroke-width:1.0;"/><line style="stroke:#181818;stroke-width:1.0;" x1="1219.8125" x2="1219.8125" y1="832.5732" y2="852.5732"/><polygon fill="#181818" points="1215.8125,842.5732,1219.8125,852.5732,1223.8125,842.5732,1219.8125,846.5732" style="stroke:#181818;stroke-width:1.0;"/><line style="stroke:#181818;stroke-width:1.0;" x1="1171.9375" x2="1017.5625" y1="450.1514" y2="450.1514"/><line style="stroke:#181818;stroke-width:1.0;" x1="1017.5625" x2="1017.5625" y1="450.1514" y2="482.1514"/><polygon fill="#181818" points="1013.5625,472.1514,1017.5625,482.1514,1021.5625,472.1514,1017.5625,476.1514" style="stroke:#181818;stroke-width:1.0;"/><line style="stroke:#181818;stroke-width:1.0;" x1="1220.4375" x2="1220.4375" y1="418.1514" y2="438.1514"/><polygon fill="#181818" points="1216.4375,428.1514,1220.4375,438.1514,1224.4375,428.1514,1220.4375,432.1514" style="stroke:#181818;stroke-width:1.0;"/><line style="stroke:#181818;stroke-width:1.0;" x1="932.625" x2="770.125" y1="351.3779" y2="351.3779"/><line style="stroke:#181818;stroke-width:1.0;" x1="770.125" x2="770.125" y1="351.3779" y2="384.1826"/><polygon fill="#181818" points="766.125,374.1826,770.125,384.1826,774.125,374.1826,770.125,378.1826" style="stroke:#181818;stroke-width:1.0;"/><line style="stroke:#181818;stroke-width:1.0;" x1="991.625" x2="1220.4375" y1="351.3779" y2="351.3779"/><line style="stroke:#181818;stroke-width:1.0;" x1="1220.4375" x2="1220.4375" y1="351.3779" y2="384.1826"/><polygon fill="#181818" points="1216.4375,374.1826,1220.4375,384.1826,1224.4375,374.1826,1220.4375,378.1826" style="stroke:#181818;stroke-width:1.0;"/><line style="stroke:#181818;stroke-width:1.0;" x1="962.125" x2="962.125" y1="318.5732" y2="338.5732"/><polygon fill="#181818" points="958.125,328.5732,962.125,338.5732,966.125,328.5732,962.125,332.5732" style="stroke:#181818;stroke-width:1.0;"/><line style="stroke:#181818;stroke-width:1.0;" x1="1649.3125" x2="1649.3125" y1="516.1201" y2="551.1201"/><polygon fill="#181818" points="1645.3125,541.1201,1649.3125,551.1201,1653.3125,541.1201,1649.3125,545.1201" style="stroke:#181818;stroke-width:1.0;"/><line style="stroke:#181818;stroke-width:1.0;" x1="349.8125" x2="349.8125" y1="264.6045" y2="269.6045"/><line style="stroke:#181818;stroke-width:1.0;" x1="349.8125" x2="962.125" y1="269.6045" y2="269.6045"/><line style="stroke:#181818;stroke-width:1.0;" x1="962.125" x2="962.125" y1="269.6045" y2="284.6045"/><polygon fill="#181818" points="958.125,274.6045,962.125,284.6045,966.125,274.6045,962.125,278.6045" style="stroke:#181818;stroke-width:1.0;"/><line style="stroke:#181818;stroke-width:1.0;" x1="770.125" x2="770.125" y1="472.1201" y2="489.6201"/><line style="stroke:#181818;stroke-width:1.0;" x1="770.125" x2="121.5" y1="489.6201" y2="489.6201"/><line style="stroke:#181818;stroke-width:1.0;" x1="121.5" x2="121.5" y1="489.6201" y2="507.1201"/><polygon fill="#181818" points="117.5,497.1201,121.5,507.1201,125.5,497.1201,121.5,501.1201" style="stroke:#181818;stroke-width:1.0;"/><line style="stroke:#181818;stroke-width:1.0;" x1="529.5" x2="529.5" y1="630.6982" y2="635.6982"/><line style="stroke:#181818;stroke-width:1.0;" x1="529.5" x2="1141.8125" y1="635.6982" y2="635.6982"/><line style="stroke:#181818;stroke-width:1.0;" x1="1141.8125" x2="1141.8125" y1="635.6982" y2="650.6982"/><polygon fill="#181818" points="1137.8125,640.6982,1141.8125,650.6982,1145.8125,640.6982,1141.8125,644.6982" style="stroke:#181818;stroke-width:1.0;"/><line style="stroke:#181818;stroke-width:1.0;" x1="1141.8125" x2="1141.8125" y1="698.6357" y2="703.6357"/><line style="stroke:#181818;stroke-width:1.0;" x1="1141.8125" x2="529.5" y1="703.6357" y2="703.6357"/><line style="stroke:#181818;stroke-width:1.0;" x1="529.5" x2="529.5" y1="703.6357" y2="718.6357"/><polygon fill="#181818" points="525.5,708.6357,529.5,718.6357,533.5,708.6357,529.5,712.6357" style="stroke:#181818;stroke-width:1.0;"/><line style="stroke:#181818;stroke-width:1.0;" x1="529.5" x2="529.5" y1="752.6045" y2="757.6045"/><line style="stroke:#181818;stroke-width:1.0;" x1="529.5" x2="1141.8125" y1="757.6045" y2="757.6045"/><line style="stroke:#181818;stroke-width:1.0;" x1="1141.8125" x2="1141.8125" y1="757.6045" y2="772.6045"/><polygon fill="#181818" points="1137.8125,762.6045,1141.8125,772.6045,1145.8125,762.6045,1141.8125,766.6045" style="stroke:#181818;stroke-width:1.0;"/><line style="stroke:#181818;stroke-width:1.0;" x1="1141.8125" x2="1141.8125" y1="858.5732" y2="863.5732"/><line style="stroke:#181818;stroke-width:1.0;" x1="1141.8125" x2="1449.3125" y1="863.5732" y2="863.5732"/><line style="stroke:#181818;stroke-width:1.0;" x1="1449.3125" x2="1449.3125" y1="863.5732" y2="878.5732"/><polygon fill="#181818" points="1445.3125,868.5732,1449.3125,878.5732,1453.3125,868.5732,1449.3125,872.5732" style="stroke:#181818;stroke-width:1.0;"/><line style="stroke:#181818;stroke-width:1.0;" x1="1449.3125" x2="1449.3125" y1="912.542" y2="917.542"/><line style="stroke:#181818;stroke-width:1.0;" x1="1449.3125" x2="529.5" y1="917.542" y2="917.542"/><line style="stroke:#181818;stroke-width:1.0;" x1="529.5" x2="529.5" y1="917.542" y2="932.542"/><polygon fill="#181818" points="525.5,922.542,529.5,932.542,533.5,922.542,529.5,926.542" style="stroke:#181818;stroke-width:1.0;"/><line style="stroke:#181818;stroke-width:1.0;" x1="1017.5625" x2="1017.5625" y1="516.1201" y2="533.6201"/><line style="stroke:#181818;stroke-width:1.0;" x1="1017.5625" x2="405.25" y1="533.6201" y2="533.6201"/><line style="stroke:#181818;stroke-width:1.0;" x1="405.25" x2="405.25" y1="533.6201" y2="551.1201"/><polygon fill="#181818" points="401.25,541.1201,405.25,551.1201,409.25,541.1201,405.25,545.1201" style="stroke:#181818;stroke-width:1.0;"/><line style="stroke:#181818;stroke-width:1.0;" x1="1268.9375" x2="1649.3125" y1="450.1514" y2="450.1514"/><line style="stroke:#181818;stroke-width:1.0;" x1="1649.3125" x2="1649.3125" y1="450.1514" y2="482.1514"/><polygon fill="#181818" points="1645.3125,472.1514,1649.3125,482.1514,1653.3125,472.1514,1649.3125,476.1514" style="stroke:#181818;stroke-width:1.0;"/><line style="stroke:#181818;stroke-width:1.0;" x1="1649.3125" x2="1649.3125" y1="599.0576" y2="1067.4795"/><line style="stroke:#181818;stroke-width:1.0;" x1="1649.3125" x2="608.125" y1="1067.4795" y2="1067.4795"/><line style="stroke:#181818;stroke-width:1.0;" x1="608.125" x2="608.125" y1="1067.4795" y2="1082.4795"/><polygon fill="#181818" points="604.125,1072.4795,608.125,1082.4795,612.125,1072.4795,608.125,1076.4795" style="stroke:#181818;stroke-width:1.0;"/><text fill="#000000" font-family="sans-serif" font-size="18" lengthAdjust="spacing" textLength="72" x="308.8125" y="29.4531">U&#382;ivatel</text><text fill="#000000" font-family="sans-serif" font-size="18" lengthAdjust="spacing" textLength="65" x="967.4688" y="29.4531">Syst&#233;m</text><text fill="#000000" font-family="sans-serif" font-size="18" lengthAdjust="spacing" textLength="151" x="1452.8125" y="29.4531">E-mailov&#253; server</text><!--SRC=[TLEzRjim4Dxv58TCpj2XABfOQ8iMpL0KQ8AsoM1ueQspfKWw2XGbm89UmG_WPlBemUXU85qelLUFbEmuQR98b7JVpzrtQguBr0rSTt_ZIXfCHM6aDa9ZZjA8yQN1gjlOlO6ysyHHAhkjgkJSxg4mscufAGCndiXG6hZDx8uKI8YmI1M_lWpvm1yMIcTbQhVT9X3DZrNH05-CtMLSKhLtpFi_k_qJobiCHBmOsL_kEAMSkSZkpas4DFf8wbm0Z6zMfbAUGMCgvt7WNbvr6ooozaupcG6I4CeYcYcfG_UvyHtxEbLosuRbOd8cPRickuyK5Bs_qfKZXGBJ0aVVq2dw1Xpu2oKQCoJZHNBLhj7TahBeVZiSExzoJoju_mxUzAvx2WPFr4pBcbtFezLCLQg4EkTnLbxnnAAd-Ou5cYcviSeFZucOYIMOfoPr07CoAlSdRtkOb2_-ciO9gTB0sKHckK8gkSq-hxC1V6pmiK-VeOiGE0YjeERnKkcXyeXySEsWVYaqBcFU59uHsNl0LvcCq-UKc3yPZemzhaKFW0e-VmfEAa4kPKmFzJUh9HBsSMitBJ0gGJf0EC8J_kR2SJPmuRbLnRxOTuNwuFomjuDu0IfCP8sPsoJF_aB3RYJiULX_U36Vau0eZ1SWdYOrEEnNvMUSeOlizLl8ug6beyKoLxNInC9sFoNsLyjPgX9kQal-BshNPf0LWzpJ1UFXjUk4kKml50Znh77H-_u7]--></g></svg>